<?xml version="1.0" encoding="utf-8"?>
<!-- Generator: Adobe Illustrator 16.0.0, SVG Export Plug-In . SVG Version: 6.00 Build 0)  -->
<!DOCTYPE svg PUBLIC "-//W3C//DTD SVG 1.1//EN" "http://www.w3.org/Graphics/SVG/1.1/DTD/svg11.dtd">
<svg version="1.1" id="Capa_1" xmlns="http://www.w3.org/2000/svg" xmlns:xlink="http://www.w3.org/1999/xlink" x="0px" y="0px"
	 width="1024px" height="500px" viewBox="0 0 1024 500" enable-background="new 0 0 1024 500" xml:space="preserve">
<polygon fill="#2A4D59" points="435.324,416.062 435.324,416.062 504.523,500 1024,500 1024,233.043 942.641,134.187 "/>
<g>
	<path fill="#FFFFFF" d="M223.869,192.918c-51.558,0-93.354,41.758-93.354,93.269c0,51.512,41.796,93.27,93.354,93.27
		c0.113,0,0.226-0.002,0.339-0.004v-186.53C224.094,192.923,223.981,192.918,223.869,192.918z"/>
	<path fill="#E6E7E8" d="M317.223,286.188c0-51.397-41.613-93.082-93.015-93.265v186.53
		C275.61,379.27,317.223,337.586,317.223,286.188z"/>
	<path fill="#08A3BC" d="M311.108,252.362l-4.871,0.083l-2.445-2.681l-0.468-4.31l-2.5,1.365l-1.345,5.267l-3.609-3.842
		l-0.147-3.633l-3.488-3.003l-1.288-1.277h-4.046l1.281,3.603l4.868,2.715l0.845,0.897l-1.052,0.526l0.04,2.855l-2.368,0.99
		l-2.028-0.445l-1.261-1.792l3.289,0.176l0.889-1.197l-7.296-4.922l-0.555-2.096l-2.963,2.68l-3.007-0.618l-4.574,5.946
		l-0.897,2.328l-2.923,0.266l-4.329,0.027l-2.586-1.209l-0.762-5.139l0.929-2.451l4.403-0.964l4.804,0.964l0.583-2.656l-2.04-0.482
		l0.698-4.139l4.833-0.755l3.379-4.774l3.491-0.585l3.15,0.467h1.159l-0.636-4.484l-3.832,1.546l-1.346-3.351l-2.221-0.31
		l-0.417-2.297l1.816-1.974l4.309-1.689l1.111-1.982c-16.423-14.469-37.938-23.29-61.479-23.342v16.83l1.781,0.79v3.338l2.801,0.698
		l-1.4,2.641h-3.182v12.173l1.932,1.177l-0.15,3.267l-1.781,0.607v2.272l2.713,1.237l-0.08,2.249l-1.194,0.102
		c-0.003-0.038-0.008-0.061-0.008-0.061l-1.432-0.441v62.64l2.329,0.887l8.228,0.08l2.412,3.953l3.646,1.168l-0.703,3.266
		l-3.999,5.082l-1.166,11.242l-3.606,2.855l-5.36-0.16l-1.781,3.094v0.027l1.321,5.811l-1.321,1.689v38.359
		c29.125-0.064,55.154-13.529,72.258-34.535h-3.082v-6.213l-3.562-4.803v-7.471l-2.726-2.709l-0.234-3.109l3.456-6.602l-6.558-11.57
		l0.778-7.848l-5.904-0.615l-2.17-2.174H272.5l-2.015,1.863h-6.99l-0.234,0.619h-3.883l-8.927-10.168l0.072-7.922l1.476-0.541
		l0.547-3.031h-2.094l-0.857-3.182l10.331-7.451v-5.281l5.054-2.807l2.043,0.203h4.161l3.253-1.744l10.485-0.818v5.359l8.272,2.096
		l1.63,1.164h1.515v-2.914l4.773-0.465l4.547,3.379h7.45l0.523-0.479C312.894,257.254,312.049,254.785,311.108,252.362z
		 M266.985,225.769l0.858-1.318l3.066-0.621l0.774,3.73l1.634,2.638l1.083,1.246l1.98,0.771l-1.86,2.218l-3.611,0.346h-2.717
		l0.305-3.221l2.258-0.467l-0.191-1.514l-2.103-1.322l-1.477-1.007V225.769z M261.939,231.596l1.868-2.989l2.516-0.584l1.793,0.778
		l-0.162,2.017l-3.841,2.718h-2.174V231.596z"/>
	<polygon fill="#004346" points="224.203,333.656 224.208,333.676 224.208,333.648 	"/>
	<path fill="#32B8C9" d="M219.7,346.939l-1.86,3.418l-5.555,2.67l-3.653,0.555l-0.15,1.549l2.562,0.736l-0.309,1.666l-2.297,2.213
		l1.397,1.754l2.761,0.078l-0.155,2.133l-0.735,2.096l-0.237,1.707l4.086,3.441l-0.544,1.787l-5.558-0.105l-5.534-4.83l-4.313-7.576
		l0.604-7.312l-3.261-4.35l1.32-7.373l-1.94-0.547v-15.994c0,0-5.434-4.119-5.743-4.119s-2.872-0.695-2.872-0.695l-0.547-3.027
		l-7.062-8.852l0.699-3.186l0.229-5.201l4.887-3.418l-0.697-5.824l-7.141-0.537l-5.59-6.371l-3.959-1.084l-2.559-0.469l0.305-2.328
		l-3.261-0.467v1.32l-8.153-2.018l-3.28-5.021l1.337-2.434l-5.166-7.535l-0.889-5.51h-2.095l0.698,5.355l3.57,5.512l-0.389,2.178
		l-3.027-0.465l-3.725-6.354v-7.389l-3.88-1.869v-5.316c-4.8,11.236-7.461,23.595-7.461,36.566
		c0,51.523,41.917,93.441,93.438,93.441c0.071,0,0.141-0.004,0.211-0.004v-38.359L219.7,346.939z"/>
	<path fill="#32B8C9" d="M220.446,238.382l-0.218-1.665h-0.007l1.515-1.043v-1.517l-1.631-0.41l-0.405,1.401l-2.86,0.441
		l-0.285-0.095v0.144l-0.993,0.151l-0.81-1.632l-0.936-0.41h-2.039l-0.928,0.758v1.688l1.745,0.582l1.721,0.242l-0.384,0.169
		l-1.571,1.741l-0.694-0.871l-1.515-0.401l-4.138,3.894l0.54,0.444l-6.11,3.382l-5.748,5.978l-0.389,2.663l-5.764,3.782
		l-2.853,2.873l0.313,5.744l-3.963-1.844l0.032-3.359l-11.021,0.004l-5.704,2.889l-2.484,4.57l-0.979,3.623l1.607,3.514l4.495,0.549
		l7.145-4.781l0.626,2.369l-2.182,4.119l5.443,0.928l0.54,8.402l7.458,1.264l4.732-5.473l5.748,1.168l2.02,2.809l5.511-0.326
		l0.155-1.629l3.027,1.475l3.42,5.354l5.896,0.084l2.177,3.805l0.31,4.654l4.197,1.6v-62.64L220.446,238.382z M211.175,243.086
		l-1.945,0.163l0.104-1.351l0.873-1.083l1.166,0.916L211.175,243.086z M218,240.699l-1.331,0.116l-0.27,1.285l-1.023,0.637
		l-1.639,0.136c-0.055-0.384-0.096-0.678-0.096-0.678h-0.634v-1.379h2.675l0.555-1.427l1.064-0.021l1.217,0.251L218,240.699z"/>
	<path fill="#32B8C9" d="M223.997,192.659c-20.502,0-39.469,6.656-54.897,17.895l4.713-0.038l2.098,1.162l3.956,0.854l0.309,1.555
		l6.292,0.232l-0.853-2.017l-5.589-0.157l1.317-1.24l-0.46-1.478h-5.054l5.515-4.116h5.281l2.483,3.42l4.122,0.231l2.48-2.41
		l1.868,0.934l-3.42,3.34c0,0-4.736,0.079-4.502,0.079s0.393,3.259,0.393,3.259l5.737-0.159l0.626-1.548l3.956-0.235l0.468-2.327
		l-2.329-0.392l0.777-2.095l1.785-0.542l6.213,0.308l-3.428,3.108l0.555,2.404l3.572,0.546l-0.234-4.348l3.416-1.788l6.062-0.698
		l6.986,3.095v-16.83C224.138,192.663,224.068,192.659,223.997,192.659z"/>
	<polygon fill="#32B8C9" points="223.43,216.959 222.259,219.985 213.205,217.849 220.319,214.061 217.605,211.756 211.469,212.531 
		210.933,213.087 210.914,213.077 210.813,213.21 209.048,215.045 206.133,215.291 206.367,216.747 207.382,217.167 
		207.342,217.647 204.971,217.987 204.796,219.365 202.522,219.484 202.114,216.747 198.036,217.987 189.709,222.862 
		190.645,226.293 192.973,227.811 197.631,228.454 197.631,233.747 199.781,233.4 201.765,229.265 206.716,227.696 206.716,221.346 
		209.469,219.268 216.13,220.838 215.662,225.034 217.452,225.034 222.343,222.628 222.577,228.138 224.208,229.133 
		224.208,216.959 	"/>
	<polygon fill="#004346" points="222.577,234.739 222.807,235.819 224.208,236.457 224.208,234.184 	"/>
</g>
<path fill="#456A77" d="M432.647,409.062c0,6.627,5.373,12,12,12H934.72c6.627,0,12-5.373,12-12V143.181c0-6.627-5.373-12-12-12
	H444.647c-6.627,0-12,5.373-12,12v82.601L207.937,339.917l224.711-16.115V409.062z"/>
<g opacity="0.5">
	<g>
		<path fill="#FFFFFF" d="M143.142,369.471h-35.835c-1.18,0-2.144,0.97-2.144,2.143v23.632c0,1.183,0.964,2.145,2.144,2.145h12.991
			l-2.848,9.488l2.619,0.034l2.697-9.522h4.922l2.696,9.522l2.522,0.047l-2.753-9.569h12.989c1.174,0,2.145-0.962,2.145-2.145
			v-23.632C145.286,370.44,144.325,369.471,143.142,369.471L143.142,369.471z M141.207,393.217h-31.966v-20.013h31.966V393.217z
			 M141.207,393.217"/>
		<path fill="#FFFFFF" d="M113.005,389.854c0.919,0,1.664-0.742,1.664-1.663c0-0.167-0.052-0.315-0.098-0.461
			c2.122-1.719,5.874-4.729,7.582-6.053c0.271,0.191,0.586,0.325,0.936,0.325c0.298,0,0.56-0.097,0.794-0.228
			c1.105,0.937,2.971,2.52,4.299,3.649c-0.015,0.098-0.061,0.183-0.061,0.281c0,0.917,0.753,1.662,1.672,1.662
			c0.917,0,1.663-0.745,1.663-1.662c0-0.159-0.052-0.309-0.097-0.453l4.299-3.88c0.226,0.12,0.481,0.208,0.752,0.208
			c0.919,0,1.666-0.743,1.666-1.662c0-0.92-0.746-1.661-1.666-1.661c-0.911,0-1.653,0.741-1.653,1.661
			c0,0.22,0.044,0.431,0.125,0.621c-1.201,1.079-3.059,2.749-4.203,3.792c-0.261-0.167-0.561-0.291-0.885-0.291
			c-0.395,0-0.735,0.158-1.023,0.387c-1.096-0.938-2.872-2.442-4.132-3.512c0.07-0.185,0.115-0.366,0.115-0.566
			c0-0.921-0.743-1.665-1.655-1.665c-0.919,0-1.662,0.744-1.662,1.665c0,0.2,0.042,0.394,0.111,0.566l-7.623,5.927
			c-0.262-0.174-0.568-0.308-0.919-0.308c-0.917,0-1.662,0.745-1.662,1.656C111.343,389.112,112.087,389.854,113.005,389.854
			L113.005,389.854z M113.005,389.854"/>
	</g>
</g>
<g>
</g>
<g>
	<polygon opacity="0.5" fill="#FFFFFF" points="167.675,432.278 179.318,436.401 179.318,404.611 167.675,400.488 167.674,400.488 
		167.674,432.279 	"/>
	<polygon opacity="0.5" fill="#FFFFFF" points="203.127,436.426 203.127,404.635 191.593,400.549 191.593,432.341 	"/>
	<polygon opacity="0.5" fill="#FFFFFF" points="180.384,436.426 190.418,432.278 190.592,432.341 190.592,400.549 190.418,400.488 
		180.384,404.635 180.318,404.611 180.318,436.401 	"/>
	<path fill="#F3F0EF" d="M190.277,418.186c0.123,0.152,0.225,0.306,0.315,0.461v-0.268
		C190.484,418.316,190.374,418.256,190.277,418.186z"/>
	<polygon fill="#315565" points="169.867,404.223 177.126,406.4 177.308,421.826 169.686,419.285 	"/>
	<polygon fill="#315565" points="193.28,408.928 200.81,410.988 200.765,417.657 193.328,415.546 	"/>
	<g>
		<g>
			<line fill="#315565" x1="176.744" y1="426.066" x2="169.937" y2="423.727"/>
			<polygon fill="#315565" points="177.023,426.67 177.023,423.889 169.638,421.106 169.638,424.032 			"/>
		</g>
	</g>
	<circle fill="#315565" cx="185.313" cy="421.32" r="3.176"/>
	<g>
		<g>
			<polygon fill="#315565" points="200.474,422.496 200.474,421.777 193.184,419.763 193.232,420.387 			"/>
		</g>
	</g>
	<g>
		<g>
			<polygon fill="#315565" points="200.474,425.182 200.474,424.463 193.184,422.448 193.232,423.072 			"/>
		</g>
	</g>
	<g>
		<g>
			<polygon fill="#315565" points="200.474,427.676 200.474,426.957 193.184,424.942 193.232,425.566 			"/>
		</g>
	</g>
	<g>
		<g>
			<polygon fill="#315565" points="181.77,408.806 181.715,408.089 189.213,405.582 189.209,406.209 			"/>
		</g>
	</g>
	<g>
		<g>
			<polygon fill="#315565" points="181.782,411.484 181.728,410.767 189.225,408.261 189.222,408.886 			"/>
		</g>
	</g>
	<g>
		<g>
			<polygon fill="#315565" points="181.78,414.021 181.725,413.306 189.223,410.797 189.22,411.425 			"/>
		</g>
	</g>
</g>
<path opacity="0.5" fill="#FFFFFF" d="M77.027,338.868c0-8.1,0-16.199,0-24.299c0.858,0.012,1.717,0.023,2.576,0.037
	c0.169,0.004,0.195-0.09,0.193-0.23c-0.004-0.378,0.013-0.76-0.006-1.138c-0.014-0.259,0.088-0.325,0.329-0.315
	c1.367,0.055,2.736,0.071,4.102,0.151c2.459,0.146,4.889,0.489,7.242,1.254c1.278,0.415,2.5,0.954,3.559,1.802
	c0.276,0.222,0.523,0.48,0.789,0.729c0.078-0.07,0.142-0.119,0.194-0.177c0.592-0.655,1.323-1.117,2.101-1.514
	c1.682-0.856,3.486-1.314,5.332-1.638c2.667-0.469,5.36-0.58,8.06-0.607c0.244-0.003,0.338,0.062,0.325,0.318
	c-0.02,0.379-0.002,0.76-0.006,1.139c-0.001,0.139,0.026,0.233,0.194,0.23c0.858-0.016,1.717-0.027,2.576-0.041
	c0,8.1,0,16.199,0,24.299c-0.088,0.009-0.178,0.025-0.267,0.025c-2.599,0.012-5.196,0.036-7.784,0.332
	c-2.129,0.244-4.235,0.584-6.262,1.312c-1.173,0.42-2.299,0.921-3.158,1.875c-0.05,0.055-0.161,0.073-0.245,0.074
	c-0.699,0.006-1.399,0.008-2.099,0c-0.09-0.001-0.21-0.032-0.265-0.094c-0.706-0.807-1.635-1.27-2.6-1.662
	c-1.715-0.695-3.515-1.065-5.339-1.322c-2.199-0.311-4.411-0.473-6.633-0.489C78.964,338.913,77.996,338.886,77.027,338.868z
	 M94.981,337.729c0-0.128,0-0.233,0-0.338c0-6.338,0.003-12.677-0.009-19.015c0-0.208-0.092-0.466-0.232-0.612
	c-0.323-0.336-0.676-0.654-1.062-0.915c-1.217-0.822-2.595-1.268-4.006-1.612c-2.696-0.658-5.444-0.843-8.206-0.921
	c-0.278-0.008-0.305,0.11-0.305,0.336c0.004,6.598,0.004,13.195-0.002,19.793c0,0.271,0.092,0.324,0.343,0.339
	c1.805,0.114,3.612,0.198,5.409,0.384c2.094,0.217,4.14,0.684,6.08,1.527C93.654,336.983,94.28,337.36,94.981,337.729z
	 M96.629,337.772c0.183-0.104,0.297-0.178,0.42-0.238c0.849-0.414,1.674-0.896,2.556-1.225c1.816-0.675,3.716-1.035,5.638-1.221
	c1.62-0.157,3.25-0.219,4.875-0.305c0.262-0.014,0.337-0.088,0.334-0.349c-0.014-1.199-0.006-2.399-0.006-3.6
	c0-5.376-0.002-10.755,0.006-16.134c0-0.294-0.061-0.406-0.379-0.385c-0.857,0.059-1.717,0.079-2.574,0.129
	c-2.26,0.135-4.495,0.437-6.667,1.099c-1.208,0.368-2.367,0.849-3.374,1.64c-0.537,0.422-0.856,0.887-0.851,1.655
	c0.036,6.157,0.02,12.315,0.02,18.474C96.629,337.441,96.629,337.571,96.629,337.772z"/>
<rect x="123.905" y="366.505" opacity="0.5" fill="#FFFFFF" width="2.371" height="2.982"/>
<g>
	<rect x="82.133" y="262.283" opacity="0.5" fill="#FFFFFF" width="24.171" height="16.75"/>
	<rect x="92.569" y="272.189" fill="#315565" width="10.719" height="1.175"/>
	<rect x="92.643" y="274.759" fill="#315565" width="5.873" height="0.515"/>
	<rect x="89.646" y="266.198" fill="#315565" width="5.139" height="1.444"/>
	<circle fill="#315565" cx="87.062" cy="266.898" r="1.689"/>
</g>
<g opacity="0.5">
	<path fill="#FFFFFF" d="M92.637,320.356c-3.677-2.331-8.971-2.089-9.025-2.088l-0.051-0.998c0.23-0.017,5.664-0.262,9.612,2.242
		L92.637,320.356z"/>
	<path fill="#FFFFFF" d="M92.637,322.991c-3.677-2.331-8.971-2.089-9.025-2.088l-0.051-0.998c0.23-0.017,5.664-0.262,9.612,2.242
		L92.637,322.991z"/>
</g>
<g opacity="0.5">
	<path fill="#FFFFFF" d="M92.637,325.815c-3.677-2.331-8.971-2.089-9.025-2.088l-0.051-0.998c0.23-0.017,5.664-0.262,9.612,2.242
		L92.637,325.815z"/>
	<path fill="#FFFFFF" d="M92.637,328.45c-3.677-2.331-8.971-2.089-9.025-2.088l-0.051-0.998c0.23-0.017,5.664-0.262,9.612,2.242
		L92.637,328.45z"/>
</g>
<g opacity="0.5">
	<path fill="#FFFFFF" d="M92.637,331.274c-3.677-2.331-8.971-2.089-9.025-2.088l-0.051-0.998c0.23-0.017,5.664-0.262,9.612,2.242
		L92.637,331.274z"/>
	<path fill="#FFFFFF" d="M92.637,333.909c-3.677-2.331-8.971-2.089-9.025-2.088l-0.051-0.998c0.23-0.017,5.664-0.262,9.612,2.242
		L92.637,333.909z"/>
</g>
<g opacity="0.5">
	<path fill="#FFFFFF" d="M98.991,320.356c3.762-2.331,9.178-2.089,9.234-2.088l0.053-0.998c-0.236-0.017-5.794-0.262-9.834,2.242
		L98.991,320.356z"/>
	<path fill="#FFFFFF" d="M98.991,322.991c3.762-2.331,9.178-2.089,9.234-2.088l0.053-0.998c-0.236-0.017-5.794-0.262-9.834,2.242
		L98.991,322.991z"/>
</g>
<g opacity="0.5">
	<path fill="#FFFFFF" d="M98.991,325.815c3.762-2.331,9.178-2.089,9.234-2.088l0.053-0.998c-0.236-0.017-5.794-0.262-9.834,2.242
		L98.991,325.815z"/>
	<path fill="#FFFFFF" d="M98.991,328.45c3.762-2.331,9.178-2.089,9.234-2.088l0.053-0.998c-0.236-0.017-5.794-0.262-9.834,2.242
		L98.991,328.45z"/>
</g>
<g opacity="0.5">
	<path fill="#FFFFFF" d="M98.991,331.274c3.762-2.331,9.178-2.089,9.234-2.088l0.053-0.998c-0.236-0.017-5.794-0.262-9.834,2.242
		L98.991,331.274z"/>
	<path fill="#FFFFFF" d="M98.991,333.909c3.762-2.331,9.178-2.089,9.234-2.088l0.053-0.998c-0.236-0.017-5.794-0.262-9.834,2.242
		L98.991,333.909z"/>
</g>
<g>
	<g opacity="0.5">
		<rect x="238.396" y="401.504" fill="#315565" width="43.091" height="26.426"/>
		<path fill="#FFFFFF" d="M280.829,399.947H240.86c-1.701,0-3.507,1.07-3.507,2.781v28.396c0,1.707,1.806,4.008,3.507,4.008h15.332
			c0,0,0.64,5.285-5.014,5.285v1.312h18.536v-1.312c-5.655,0-4.226-5.285-4.226-5.285h15.341c1.697,0,2.708-2.299,2.708-4.008
			v-28.396C283.537,401.018,282.525,399.947,280.829,399.947z M260.853,433.361c-1.203,0-2.175-0.975-2.175-2.176
			c0-1.203,0.973-2.178,2.175-2.178c1.202,0,2.177,0.975,2.177,2.178C263.03,432.387,262.054,433.361,260.853,433.361z
			 M280.396,426.65h-40.213v-23.877h40.213V426.65z"/>
	</g>
	<g opacity="0.5">
		<path fill-rule="evenodd" clip-rule="evenodd" fill="#FFFFFF" d="M267.839,419.373c0-0.162,0-0.287,0-0.439
			c3.356,0,6.692,0,10.08,0c0,0.131,0,0.273,0,0.439C274.567,419.373,271.23,419.373,267.839,419.373z"/>
		<path fill-rule="evenodd" clip-rule="evenodd" fill="#FFFFFF" d="M279.027,421.128c-3.708,0-7.414,0-11.164,0
			c0-0.137,0-0.267,0-0.417c0.158-0.011,0.3-0.029,0.441-0.029c3.421-0.001,6.843,0.003,10.263-0.007
			C279.061,420.674,279.191,420.796,279.027,421.128z"/>
		<path fill-rule="evenodd" clip-rule="evenodd" fill="#FFFFFF" d="M253.471,420.764c0,0.138,0,0.26,0,0.413
			c-0.17,0.01-0.33,0.027-0.488,0.027c-3.406,0.002-6.811-0.003-10.216,0.007c-0.478,0.002-0.643-0.099-0.491-0.447
			C245.997,420.764,249.72,420.764,253.471,420.764z"/>
		<path fill-rule="evenodd" clip-rule="evenodd" fill="#FFFFFF" d="M254.965,421.179c0-0.151,0-0.273,0-0.418
			c3.734,0,7.441,0,11.179,0c0.065,0.249,0.131,0.449-0.407,0.448c-3.478-0.008-6.956-0.004-10.434-0.005
			C255.213,421.203,255.125,421.191,254.965,421.179z"/>
		<path fill-rule="evenodd" clip-rule="evenodd" fill="#FFFFFF" d="M267.851,422.841c0-0.143,0-0.265,0-0.422
			c3.025,0,6.048,0,9.114,0c0,0.131,0,0.263,0,0.422C273.932,422.841,270.908,422.841,267.851,422.841z"/>
		<path fill-rule="evenodd" clip-rule="evenodd" fill="#FFFFFF" d="M242.249,424.748c0-0.153,0-0.276,0-0.429
			c3.402,0,6.787,0,10.21,0c0,0.14,0,0.271,0,0.429C249.061,424.748,245.688,424.748,242.249,424.748z"/>
		<path fill-rule="evenodd" clip-rule="evenodd" fill="#FFFFFF" d="M265.153,424.319c0,0.143,0,0.266,0,0.422
			c-3.38,0-6.75,0-10.188,0c-0.009-0.125-0.019-0.257-0.031-0.422C258.343,424.319,261.713,424.319,265.153,424.319z"/>
		<path fill-rule="evenodd" clip-rule="evenodd" fill="#FFFFFF" d="M247.306,419.434c-1.537,0-3.074,0-4.612,0
			c-0.244,0-0.484,0.021-0.476-0.241c0.008-0.262,0.257-0.233,0.494-0.233c3.056-0.001,6.112-0.001,9.168,0
			c0.229,0,0.492-0.041,0.503,0.225c0.012,0.292-0.27,0.25-0.521,0.25C250.344,419.434,248.825,419.434,247.306,419.434z"/>
		<path fill-rule="evenodd" clip-rule="evenodd" fill="#FFFFFF" d="M265.038,418.958c0,0.179,0,0.302,0,0.451
			c-0.18,0.009-0.339,0.024-0.499,0.024c-3.015,0-6.03,0-9.045,0c-0.074,0-0.166,0.02-0.215-0.005
			c-0.124-0.061-0.229-0.141-0.341-0.213c0.114-0.086,0.221-0.239,0.342-0.245c0.564-0.027,1.132-0.013,1.699-0.013
			c2.449,0,4.897,0,7.347,0C264.541,418.958,264.757,418.958,265.038,418.958z"/>
		<path fill-rule="evenodd" clip-rule="evenodd" fill="#FFFFFF" d="M242.279,422.445c3.032,0,6.042,0,9.073,0
			c0.137,0.32,0.069,0.474-0.479,0.471c-2.705-0.014-5.41-0.013-8.115,0C242.265,422.918,242.129,422.8,242.279,422.445z"/>
		<path fill-rule="evenodd" clip-rule="evenodd" fill="#FFFFFF" d="M254.965,422.873c0-0.154,0-0.276,0-0.421
			c3.037,0,6.044,0,9.083,0c0.076,0.246,0.163,0.46-0.381,0.458c-2.814-0.005-5.629-0.002-8.444-0.005
			C255.153,422.905,255.083,422.889,254.965,422.873z"/>
		<path fill-rule="evenodd" clip-rule="evenodd" fill="#FFFFFF" d="M274.562,424.738c-2.158,0-4.291,0-6.422,0
			c-0.172-0.416-0.141-0.451,0.436-0.452c1.828-0.002,3.656,0.008,5.483-0.005C274.515,424.277,274.729,424.359,274.562,424.738z"/>
		<path fill-rule="evenodd" clip-rule="evenodd" fill="#FFFFFF" d="M277.664,408.854c0,0.594,0.005,1.17-0.013,1.747
			c-0.001,0.027-0.176,0.063-0.305,0.078c-0.121,0.015-0.288,0.005-0.434,0.005c-11.244,0-22.488,0-33.731,0
			c-0.775,0-0.776,0-0.776-0.188c0-0.507,0.01-1.011-0.008-1.517c-0.003-0.102,0.105-0.138,0.552-0.138
			c11.409,0.003,22.817,0.003,34.226,0.003C277.315,408.846,277.457,408.852,277.664,408.854z"/>
		<path fill-rule="evenodd" clip-rule="evenodd" fill="#FFFFFF" d="M252.177,412.527c0,1.53,0,3.037,0,4.576
			c-3.24,0-6.481,0-9.763,0c0-1.517,0-3.032,0-4.576C245.656,412.527,248.882,412.527,252.177,412.527z"/>
		<path fill-rule="evenodd" clip-rule="evenodd" fill="#FFFFFF" d="M277.66,417.124c-3.257,0-6.475,0-9.742,0
			c0-1.528,0-3.055,0-4.603c3.241,0,6.472,0,9.742,0C277.66,414.047,277.66,415.564,277.66,417.124z"/>
		<path fill-rule="evenodd" clip-rule="evenodd" fill="#FFFFFF" d="M264.882,412.531c0,1.53,0,3.046,0,4.585
			c-3.261,0-6.494,0-9.772,0c0-1.521,0-3.038,0-4.585C258.363,412.531,261.606,412.531,264.882,412.531z"/>
		<path fill-rule="evenodd" clip-rule="evenodd" fill="#FFFFFF" d="M247.339,404.941c1.727,0,3.447,0,5.174,0
			c0.043,0.813,0.028,1.256-0.13,1.254c-1.636-0.017-3.271-0.017-4.907-0.001C247.342,406.195,247.291,405.912,247.339,404.941z"/>
		<ellipse fill-rule="evenodd" clip-rule="evenodd" fill="#FFFFFF" cx="244.699" cy="405.32" rx="1.46" ry="1.501"/>
	</g>
</g>
<g>
	<path opacity="0.5" fill="#FFFFFF" d="M124.436,201.087h-13.044c-1.244,0-2.253,1.013-2.253,2.258v26.484
		c0,1.246,1.01,2.258,2.253,2.258h13.044c1.246,0,2.254-1.012,2.254-2.258v-26.484C126.691,202.1,125.682,201.087,124.436,201.087
		 M122.947,202.5c0.32,0,0.579,0.261,0.579,0.579c0,0.32-0.259,0.576-0.579,0.576c-0.317,0-0.578-0.256-0.578-0.576
		C122.37,202.761,122.63,202.5,122.947,202.5 M114.892,202.723h6.046v0.661h-6.046V202.723z M117.914,230.726
		c-0.835,0-1.511-0.677-1.511-1.512c0-0.834,0.675-1.513,1.511-1.513c0.835,0,1.513,0.678,1.513,1.513
		C119.426,230.049,118.749,230.726,117.914,230.726 M125.002,226.203h-14.175v-21.301h14.175V226.203z"/>
	<g>
		<circle opacity="0.5" fill="#FFFFFF" cx="118.209" cy="213.424" r="3.005"/>
		<rect x="114.673" y="217.79" opacity="0.5" fill="#FFFFFF" width="7.703" height="2.241"/>
	</g>
</g>
<g>
</g>
<g>
</g>
<g>
</g>
<g>
</g>
<g>
</g>
<g>
</g>
</svg>
