<?xml version="1.0" encoding="utf-8"?>
<!-- Generator: Adobe Illustrator 16.0.0, SVG Export Plug-In . SVG Version: 6.00 Build 0)  -->
<!DOCTYPE svg PUBLIC "-//W3C//DTD SVG 1.1//EN" "http://www.w3.org/Graphics/SVG/1.1/DTD/svg11.dtd">
<svg version="1.1" id="Capa_1" xmlns="http://www.w3.org/2000/svg" xmlns:xlink="http://www.w3.org/1999/xlink" x="0px" y="0px"
	 width="178px" height="179px" viewBox="0 0 178 179" enable-background="new 0 0 178 179" xml:space="preserve">
<g>
	<g>
		<circle fill="#28493C" cx="89.048" cy="88.975" r="87.6"/>
		<g>
			<defs>
				<path id="SVGID_1_" d="M176.576,88.975c0,48.378-39.219,87.597-87.598,87.597c-48.383,0-87.602-39.219-87.602-87.597
					c0-48.378,39.219-87.598,87.602-87.598C137.357,1.377,176.576,40.597,176.576,88.975z"/>
			</defs>
			<clipPath id="SVGID_2_">
				<use xlink:href="#SVGID_1_"  overflow="visible"/>
			</clipPath>
			<polyline clip-path="url(#SVGID_2_)" fill="#20382E" points="147.938,36.476 204.604,105.301 113.174,208.043 36.336,115.404 			
				"/>
		</g>
		<g>
			<g>
				<g>
					<polygon fill="#CDCFD0" points="104.459,130.078 72.218,130.078 76.882,108.328 99.797,108.328 					"/>
					<polygon fill="#B8BABC" points="102.434,120.625 99.797,108.328 76.882,108.328 74.246,120.625 					"/>
					<path fill="#E3E3E4" d="M111.213,132.582H65.461c-2.429,0-2.803-3.211-2.803-3.211h51.353
						C114.012,129.371,113.639,132.582,111.213,132.582z"/>
				</g>
				<path fill="#12292D" d="M148.842,103.977c0,2.951-2.391,5.342-5.342,5.342H33.174c-2.95,0-5.341-2.391-5.341-5.342V39.875
					c0-2.95,2.391-5.342,5.341-5.342H143.5c2.951,0,5.342,2.392,5.342,5.342V103.977z"/>
				<path fill="#E3E3E4" d="M27.833,102.531v10.512c0,2.949,2.391,5.34,5.341,5.34H143.5c2.951,0,5.342-2.391,5.342-5.34v-10.512
					H27.833z"/>
				<rect x="31.737" y="39.579" fill="#EDEEEE" width="113.201" height="58.16"/>
				<circle fill="#8F9294" cx="88.34" cy="110.176" r="3.865"/>
			</g>
			<g>
				<rect x="46.792" y="42.339" fill="#08A0B9" width="24.659" height="5.42"/>
				<rect x="46.792" y="50.232" fill="#A5A5A5" width="83.088" height="14.932"/>
				<rect x="46.792" y="68.17" fill="#DFA505" width="24.659" height="15.107"/>
				<rect x="76.013" y="68.17" fill="#DFA505" width="24.655" height="15.107"/>
				<rect x="105.227" y="68.17" fill="#DFA505" width="24.654" height="15.107"/>
				<g>
					<rect x="46.792" y="85.578" fill="#8F9294" width="24.659" height="2.149"/>
					<rect x="46.792" y="89.375" fill="#B8BABC" width="24.659" height="2.146"/>
					<rect x="46.792" y="93.172" fill="#B8BABC" width="24.659" height="2.143"/>
				</g>
				<g>
					<rect x="76.013" y="85.578" fill="#8F9294" width="24.655" height="2.149"/>
					<rect x="76.013" y="89.375" fill="#B8BABC" width="24.655" height="2.146"/>
					<rect x="76.013" y="93.172" fill="#B8BABC" width="24.655" height="2.143"/>
				</g>
				<g>
					<rect x="105.227" y="85.578" fill="#8F9294" width="24.654" height="2.149"/>
					<rect x="105.227" y="89.375" fill="#B8BABC" width="24.654" height="2.146"/>
					<rect x="105.227" y="93.172" fill="#B8BABC" width="24.654" height="2.143"/>
				</g>
			</g>
		</g>
	</g>
	<g>
		<path fill-rule="evenodd" clip-rule="evenodd" fill="#12292D" d="M28.084,79.322h16.022c3.037,0,5.524,2.487,5.524,5.524v43.097
			c0,3.037-2.487,5.523-5.523,5.523H28.084c-3.04,0-5.525-2.486-5.525-5.523V84.846C22.559,81.809,25.044,79.322,28.084,79.322z"/>
		<rect x="24.543" y="84.978" fill-rule="evenodd" clip-rule="evenodd" fill="#EDEEEE" width="23.125" height="40.967"/>
		<path fill-rule="evenodd" clip-rule="evenodd" fill="#6A7573" d="M30.905,82.312h10.403c0.282,0,0.513-0.229,0.513-0.515l0,0
			c0-0.282-0.231-0.513-0.513-0.513H30.905c-0.283,0-0.515,0.23-0.515,0.513l0,0C30.391,82.083,30.622,82.312,30.905,82.312z"/>
		<circle fill-rule="evenodd" clip-rule="evenodd" fill="#4D4D4D" cx="36.096" cy="129.771" r="2.197"/>
		<g>
			<rect x="26.315" y="87.052" fill="#08A0B9" width="19.376" height="4.26"/>
			<rect x="26.315" y="93.256" fill="#A5A5A5" width="19.365" height="11.734"/>
			<rect x="26.315" y="107.354" fill="#DFA505" width="19.376" height="11.875"/>
			<g>
				<rect x="26.315" y="121.035" fill="#8F9294" width="19.376" height="1.689"/>
				<rect x="26.315" y="124.02" fill="#B8BABC" width="19.376" height="1.688"/>
			</g>
		</g>
	</g>
</g>
</svg>
