<?xml version="1.0" encoding="utf-8"?>
<!-- Generator: Adobe Illustrator 16.0.0, SVG Export Plug-In . SVG Version: 6.00 Build 0)  -->
<!DOCTYPE svg PUBLIC "-//W3C//DTD SVG 1.1//EN" "http://www.w3.org/Graphics/SVG/1.1/DTD/svg11.dtd">
<svg version="1.1" id="Capa_1" xmlns="http://www.w3.org/2000/svg" xmlns:xlink="http://www.w3.org/1999/xlink" x="0px" y="0px"
	 width="178px" height="179px" viewBox="0 0 178 179" enable-background="new 0 0 178 179" xml:space="preserve">
<g>
	<g>
		<g>
			<defs>
				<circle id="SVGID_1_" cx="89.598" cy="88.932" r="87.597"/>
			</defs>
			<clipPath id="SVGID_2_">
				<use xlink:href="#SVGID_1_"  overflow="visible"/>
			</clipPath>
		</g>
		<g>
			<defs>
				<circle id="SVGID_3_" cx="89.598" cy="88.932" r="87.597"/>
			</defs>
			<use xlink:href="#SVGID_3_"  overflow="visible" fill="#28493C"/>
			<clipPath id="SVGID_4_">
				<use xlink:href="#SVGID_3_"  overflow="visible"/>
			</clipPath>
			<polyline clip-path="url(#SVGID_4_)" fill="#20382E" points="115.998,29.131 183.886,111.021 110.768,209.237 60.099,147.664 			
				"/>
		</g>
		<g>
			<defs>
				<circle id="SVGID_5_" cx="89.598" cy="88.932" r="87.597"/>
			</defs>
			<clipPath id="SVGID_6_">
				<use xlink:href="#SVGID_5_"  overflow="visible"/>
			</clipPath>
		</g>
	</g>
	<g>
		<g>
			<g>
				
					<rect x="50.128" y="34.931" transform="matrix(-0.9846 0.1747 -0.1747 -0.9846 190.1939 160.3484)" fill-rule="evenodd" clip-rule="evenodd" fill="#FFFFFF" width="75.821" height="107.232"/>
				<g>
					<circle fill-rule="evenodd" clip-rule="evenodd" fill="#FFC900" cx="111.882" cy="91.713" r="8.028"/>
					<path fill-rule="evenodd" clip-rule="evenodd" fill="#DFA505" d="M108.705,99.085c-1.269-0.547-2.383-1.416-3.222-2.522
						l6.399-4.85L108.705,99.085z"/>
					<path fill-rule="evenodd" clip-rule="evenodd" fill="#DFA505" d="M105.483,96.562c-0.744-0.982-1.274-2.15-1.504-3.446
						c-0.45-2.527,0.339-4.989,1.928-6.764l5.976,5.361L105.483,96.562z"/>
					<path fill-rule="evenodd" clip-rule="evenodd" fill="#FFEA91" d="M105.907,86.352c1.155-1.291,2.735-2.218,4.571-2.544
						l1.404,7.905L105.907,86.352z"/>
					<path fill-rule="evenodd" clip-rule="evenodd" fill="#F4DA5C" d="M110.479,83.808l1.404,7.905l4.65-6.544
						C114.841,83.967,112.685,83.417,110.479,83.808z"/>
				</g>
				<g>
					
						<rect x="60.275" y="107.148" transform="matrix(-0.9846 0.1747 -0.1747 -0.9846 174.9767 199.8353)" fill-rule="evenodd" clip-rule="evenodd" fill="#CCCCCC" width="36.835" height="0.943"/>
					
						<rect x="58.702" y="90.227" transform="matrix(-0.9846 0.1749 -0.1749 -0.9846 140.5001 187.8003)" fill-rule="evenodd" clip-rule="evenodd" fill="#FFC900" width="6.548" height="19.726"/>
					
						<rect x="66.808" y="96.286" transform="matrix(-0.9846 0.1748 -0.1748 -0.9846 156.9888 191.033)" fill-rule="evenodd" clip-rule="evenodd" fill="#DFA505" width="6.548" height="12.288"/>
					
						<rect x="74.627" y="99.091" transform="matrix(-0.9846 0.1747 -0.1747 -0.9846 172.6222 191.1158)" fill-rule="evenodd" clip-rule="evenodd" fill="#EAC945" width="6.547" height="8.126"/>
					
						<rect x="81.749" y="93.987" transform="matrix(-0.9846 0.1748 -0.1748 -0.9846 186.2105 183.5096)" fill-rule="evenodd" clip-rule="evenodd" fill="#F9E67A" width="6.547" height="11.938"/>
					
						<rect x="89.5" y="96.039" transform="matrix(-0.9847 0.1745 -0.1745 -0.9847 201.6262 182.8894)" fill-rule="evenodd" clip-rule="evenodd" fill="#F9E78F" width="6.549" height="8.535"/>
					
						<rect x="106.18" y="101.978" transform="matrix(-0.9846 0.1746 -0.1746 -0.9846 231.8991 184.4916)" fill-rule="evenodd" clip-rule="evenodd" fill="#CCCCCC" width="3.305" height="0.943"/>
					
						<rect x="110.89" y="100.564" transform="matrix(-0.9846 0.1748 -0.1748 -0.9846 247.4739 180.2751)" fill-rule="evenodd" clip-rule="evenodd" fill="#CCCCCC" width="9.817" height="0.942"/>
				</g>
				
					<rect x="61.109" y="111.743" transform="matrix(-0.9846 0.1747 -0.1747 -0.9846 169.1575 210.4805)" fill-rule="evenodd" clip-rule="evenodd" fill="#12292D" width="28.41" height="1.887"/>
				
					<rect x="61.687" y="114.994" transform="matrix(-0.9846 0.1747 -0.1747 -0.9846 170.8705 216.8363)" fill-rule="evenodd" clip-rule="evenodd" fill="#CCCCCC" width="28.409" height="1.888"/>
				
					<rect x="62.263" y="118.247" transform="matrix(-0.9846 0.1748 -0.1748 -0.9846 172.5892 223.184)" fill-rule="evenodd" clip-rule="evenodd" fill="#CCCCCC" width="28.409" height="1.887"/>
				
					<rect x="62.84" y="121.501" transform="matrix(-0.9846 0.1747 -0.1747 -0.9846 174.3019 229.542)" fill-rule="evenodd" clip-rule="evenodd" fill="#CCCCCC" width="28.411" height="1.887"/>
				
					<rect x="63.418" y="124.753" transform="matrix(-0.9846 0.1747 -0.1747 -0.9846 176.0097 235.9001)" fill-rule="evenodd" clip-rule="evenodd" fill="#CCCCCC" width="28.41" height="1.887"/>
				
					<rect x="63.996" y="128.005" transform="matrix(-0.9846 0.1747 -0.1747 -0.9846 177.7299 242.2509)" fill-rule="evenodd" clip-rule="evenodd" fill="#CCCCCC" width="28.409" height="1.888"/>
				
					<rect x="64.573" y="131.257" transform="matrix(-0.9846 0.1747 -0.1747 -0.9846 179.4417 248.6061)" fill-rule="evenodd" clip-rule="evenodd" fill="#CCCCCC" width="28.409" height="1.89"/>
				
					<rect x="65.258" y="135.751" transform="matrix(-0.9846 0.1747 -0.1747 -0.9846 167.4869 258.6481)" fill-rule="evenodd" clip-rule="evenodd" fill="#CCCCCC" width="14.206" height="1.888"/>
				
					<rect x="94.089" y="105.891" transform="matrix(-0.9846 0.1747 -0.1747 -0.9846 233.5856 193.1072)" fill-rule="evenodd" clip-rule="evenodd" fill="#CCCCCC" width="28.41" height="1.887"/>
				
					<rect x="94.666" y="109.143" transform="matrix(-0.9846 0.1747 -0.1747 -0.9846 235.2983 199.4613)" fill-rule="evenodd" clip-rule="evenodd" fill="#CCCCCC" width="28.41" height="1.888"/>
				
					<rect x="95.244" y="112.396" transform="matrix(-0.9846 0.1747 -0.1747 -0.9846 237.0166 205.8112)" fill-rule="evenodd" clip-rule="evenodd" fill="#CCCCCC" width="28.409" height="1.887"/>
				
					<rect x="95.82" y="115.648" transform="matrix(-0.9846 0.1747 -0.1747 -0.9846 238.7279 212.1671)" fill-rule="evenodd" clip-rule="evenodd" fill="#CCCCCC" width="28.41" height="1.888"/>
				
					<rect x="96.396" y="118.901" transform="matrix(-0.9846 0.1747 -0.1747 -0.9846 240.4376 218.5253)" fill-rule="evenodd" clip-rule="evenodd" fill="#CCCCCC" width="28.41" height="1.887"/>
				
					<rect x="96.974" y="122.153" transform="matrix(-0.9846 0.1747 -0.1747 -0.9846 242.1562 224.8741)" fill-rule="evenodd" clip-rule="evenodd" fill="#CCCCCC" width="28.41" height="1.887"/>
				
					<rect x="97.552" y="125.405" transform="matrix(-0.9846 0.1747 -0.1747 -0.9846 243.8708 231.228)" fill-rule="evenodd" clip-rule="evenodd" fill="#CCCCCC" width="28.41" height="1.888"/>
				
					<rect x="98.194" y="129.394" transform="matrix(-0.9846 0.1747 -0.1747 -0.9846 237.4944 239.763)" fill-rule="evenodd" clip-rule="evenodd" fill="#CCCCCC" width="19.996" height="1.887"/>
			</g>
			<path fill-rule="evenodd" clip-rule="evenodd" fill="#B7B7B7" d="M116.854,68.63c0.41,2.324-1.138,4.541-3.46,4.953
				l-18.549,3.291l-3.673,10.972l-7.224-9.037l-24.266,4.306c-2.323,0.412-4.541-1.137-4.952-3.461l-3.415-19.239
				c-0.411-2.322,1.137-4.539,3.46-4.952l53.711-9.531c2.322-0.411,4.54,1.138,4.952,3.46L116.854,68.63z"/>
			
				<rect x="49.974" y="45.311" transform="matrix(0.9846 -0.1747 0.1747 0.9846 -7.4365 11.1283)" fill="#08A0B9" width="19.06" height="5.002"/>
		</g>
		
			<rect x="74.508" y="62.1" transform="matrix(-0.9846 0.1747 -0.1747 -0.9846 194.6112 108.9527)" fill-rule="evenodd" clip-rule="evenodd" fill="#FFFFFF" width="36.002" height="1.887"/>
		
			<rect x="75.085" y="65.353" transform="matrix(-0.9846 0.1747 -0.1747 -0.9846 196.3237 115.3104)" fill-rule="evenodd" clip-rule="evenodd" fill="#FFFFFF" width="36.001" height="1.888"/>
		
			<rect x="75.663" y="68.606" transform="matrix(-0.9846 0.1747 -0.1747 -0.9846 198.0374 121.6644)" fill-rule="evenodd" clip-rule="evenodd" fill="#FFFFFF" width="36.001" height="1.887"/>
		
			<rect x="73.366" y="55.221" transform="matrix(-0.9846 0.1747 -0.1747 -0.9846 191.1416 95.5004)" fill-rule="evenodd" clip-rule="evenodd" fill="#FFFFFF" width="36.002" height="1.887"/>
		
			<rect x="73.943" y="58.474" transform="matrix(-0.9846 0.1747 -0.1747 -0.9846 192.8543 101.858)" fill-rule="evenodd" clip-rule="evenodd" fill="#FFFFFF" width="36.001" height="1.888"/>
	</g>
	<g>
		<path fill="#12292D" d="M57.008,71.118c-0.207-1.274-0.414-2.55-0.621-3.824c0.047-0.397,0.31-0.525,0.669-0.583
			c2.366-0.376,4.729-0.764,7.094-1.148c0.054-0.008,0.107-0.017,0.173-0.027c-0.01-0.061-0.017-0.104-0.023-0.146
			c-0.102-0.621-0.205-1.242-0.301-1.865c-0.022-0.14-0.036-0.286-0.024-0.428c0.022-0.291,0.271-0.461,0.553-0.384
			c0.103,0.028,0.203,0.071,0.297,0.121c0.323,0.173,0.642,0.354,0.964,0.526c0.769,0.411,1.54,0.814,2.307,1.23
			c0.896,0.484,1.787,0.977,2.678,1.473c0.262,0.146,0.535,0.287,0.678,0.578c0.013,0.079,0.025,0.157,0.038,0.236
			c-0.046,0.187-0.097,0.369-0.229,0.518c-0.153,0.172-0.304,0.348-0.456,0.521c-0.425,0.484-0.851,0.969-1.275,1.454
			c-0.398,0.455-0.796,0.911-1.193,1.367c-0.519,0.594-1.036,1.188-1.556,1.78c-0.145,0.163-0.287,0.331-0.451,0.474
			c-0.22,0.189-0.49,0.125-0.615-0.137c-0.045-0.095-0.069-0.202-0.087-0.308c-0.116-0.696-0.228-1.393-0.341-2.089
			c-0.007-0.042-0.014-0.084-0.021-0.132c-0.043,0.004-0.074,0.004-0.105,0.009c-2.502,0.407-5.004,0.814-7.506,1.223
			c-0.25,0.041-0.445-0.054-0.563-0.281C57.061,71.223,57.036,71.17,57.008,71.118z"/>
	</g>
</g>
</svg>
