<?xml version="1.0" encoding="utf-8"?>
<!-- Generator: Adobe Illustrator 16.0.0, SVG Export Plug-In . SVG Version: 6.00 Build 0)  -->
<!DOCTYPE svg PUBLIC "-//W3C//DTD SVG 1.1//EN" "http://www.w3.org/Graphics/SVG/1.1/DTD/svg11.dtd">
<svg version="1.1" id="Capa_1" xmlns="http://www.w3.org/2000/svg" xmlns:xlink="http://www.w3.org/1999/xlink" x="0px" y="0px"
	 width="178px" height="179px" viewBox="0 0 178 179" enable-background="new 0 0 178 179" xml:space="preserve">
<g>
	<circle fill="#2A4D59" cx="88.598" cy="89.805" r="87.597"/>
	<g>
		<defs>
			<circle id="SVGID_1_" cx="88.69" cy="89.44" r="87.597"/>
		</defs>
		<clipPath id="SVGID_2_">
			<use xlink:href="#SVGID_1_"  overflow="visible"/>
		</clipPath>
		<polyline clip-path="url(#SVGID_2_)" fill="#1C383F" points="122.064,40.297 188.066,118.688 125.574,188.114 79.203,172.003 		
			"/>
	</g>
	<g>
		<g>
			
				<rect x="53.559" y="47.392" transform="matrix(0.2375 -0.9714 0.9714 0.2375 0.3706 141.935)" fill-rule="evenodd" clip-rule="evenodd" fill="#FFFFFF" width="74.074" height="46.679"/>
			<polygon fill-rule="evenodd" clip-rule="evenodd" fill="#08A3BC" points="81.289,69.667 75.054,94.71 68.946,93.216 
				75.182,68.172 			"/>
			<g>
				<g>
					
						<rect x="78.149" y="60.934" transform="matrix(0.251 -0.968 0.968 0.251 10.0964 137.6852)" fill="#1C383F" width="31.741" height="2.768"/>
					
						<rect x="82.881" y="62.163" transform="matrix(0.251 -0.968 0.968 0.251 12.4513 143.1829)" fill="#1C383F" width="31.741" height="2.765"/>
					
						<rect x="87.611" y="63.392" transform="matrix(0.2511 -0.968 0.968 0.2511 14.804 148.6765)" fill="#1C383F" width="31.74" height="2.759"/>
				</g>
			</g>
		</g>
		<g>
			<g>
				<path fill-rule="evenodd" clip-rule="evenodd" fill="#E2A805" d="M111.281,73.603 M102.546,112.473
					c0.226,1.961,0.448,3.925,0.637,5.893c0.211,2.198,0.394,4.399,0.566,6.602c0.284,3.639,0.372,7.278,0.243,10.929
					c-0.102,2.832-0.882,5.451-2.139,7.945c-0.912,1.811-1.859,3.604-2.873,5.357c-0.784,1.357-1.809,2.531-3.018,3.556
					c-1.626,1.378-3.502,1.863-5.534,1.476c-2.537-0.487-5.067-1.056-7.552-1.764c-2.377-0.677-4.701-1.549-7.027-2.398
					c-0.767-0.279-1.5-0.699-2.187-1.148c-1.403-0.917-1.848-2.327-1.812-3.923c0.029-1.288,0.363-2.516,0.846-3.709
					c1.058-2.609,1.062-5.292,0.459-7.997c-0.949-4.253-2.914-8.083-4.94-11.892c-1.389-2.612-2.774-5.229-4.051-7.897
					c-0.942-1.967-1.754-4.003-2.531-6.045c-0.636-1.667-0.922-3.431-1.084-5.208c-0.018-0.199-0.083-0.453-0.222-0.575
					l16.298,3.008c3.699,0.89,7.34,1.762,10.954,2.631c0.076-0.773,0.178-1.486,0.207-2.2c0.098-2.425,0.173-4.85,0.256-7.274
					c0.09-2.656,0.155-5.313,0.279-7.968c0.056-1.207,0.316-2.387,0.914-3.46c0.39-0.705,0.93-1.243,1.75-1.399
					c2.159-0.41,4.071,0.177,5.696,1.596c1.616,1.411,2.652,3.173,2.959,5.343c0.288,2.044,0.68,4.073,0.979,6.116
					c0.504,3.448,0.968,6.902,1.451,10.353c0.048,0.343,0.109,0.685,0.174,1.082L102.546,112.473z M113.821,74.125
					c1.466,1.034,2.567,2.343,2.964,4.148c0.566,2.589-0.692,5.38-3.031,6.713c-0.152,0.087-0.299,0.184-0.499,0.307
					c1.298,1.55,1.732,3.314,1.378,5.223c-0.35,1.891-1.441,3.33-3.071,4.381c1.585,2.247,1.875,4.591,0.579,7.018
					c-1.293,2.423-3.435,3.399-6.171,3.375L113.821,74.125z"/>
			</g>
		</g>
		<g>
			
				<rect x="78.358" y="134.906" transform="matrix(0.3773 -0.9261 0.9261 0.3773 -89.5238 171.49)" fill="#12292D" width="8.804" height="34.82"/>
			<path fill="#AAAAAA" d="M100.262,159.42l-35.199-14.361L54.334,170.19c11.85,5.769,25.819,7.857,38.459,7.126L100.262,159.42z"/>
			<path fill="#BABABA" d="M82.66,152.244l-17.598-7.186L54.334,170.19c5.778,2.813,12.029,4.827,17.984,5.872L82.66,152.244z"/>
		</g>
	</g>
</g>
<g>
</g>
<g>
</g>
<g>
</g>
<g>
</g>
<g>
</g>
<g>
</g>
</svg>
