<?xml version="1.0" encoding="utf-8"?>
<!-- Generator: Adobe Illustrator 16.0.0, SVG Export Plug-In . SVG Version: 6.00 Build 0)  -->
<!DOCTYPE svg PUBLIC "-//W3C//DTD SVG 1.1//EN" "http://www.w3.org/Graphics/SVG/1.1/DTD/svg11.dtd">
<svg version="1.1" id="Capa_1" xmlns="http://www.w3.org/2000/svg" xmlns:xlink="http://www.w3.org/1999/xlink" x="0px" y="0px"
	 width="178px" height="179px" viewBox="0 0 178 179" enable-background="new 0 0 178 179" xml:space="preserve">
<g>
	<path fill="#28493C" d="M177.466,88.962c0,48.38-39.219,87.597-87.602,87.597c-48.377,0-87.596-39.217-87.596-87.597
		c0-48.378,39.219-87.598,87.596-87.598C138.247,1.365,177.466,40.584,177.466,88.962z"/>
	<g>
		<defs>
			<path id="SVGID_1_" d="M177.558,88.598c0,48.379-39.219,87.598-87.602,87.598c-48.377,0-87.596-39.219-87.596-87.598
				C2.36,40.22,41.579,1,89.956,1C138.339,1,177.558,40.22,177.558,88.598z"/>
		</defs>
		<clipPath id="SVGID_2_">
			<use xlink:href="#SVGID_1_"  overflow="visible"/>
		</clipPath>
		<polyline clip-path="url(#SVGID_2_)" fill="#20382E" points="123.335,39.455 189.337,117.847 126.845,187.272 80.471,171.161 		
			"/>
	</g>
	<g>
		<g>
			
				<rect x="54.828" y="46.549" transform="matrix(0.2375 -0.9714 0.9714 0.2375 2.1558 142.5262)" fill-rule="evenodd" clip-rule="evenodd" fill="#FFFFFF" width="74.074" height="46.681"/>
			<polygon fill-rule="evenodd" clip-rule="evenodd" fill="#08A0B9" points="82.556,68.825 76.321,93.868 70.214,92.374 
				76.45,67.33 			"/>
			<g>
				<g>
					
						<rect x="79.418" y="60.091" transform="matrix(0.2511 -0.968 0.968 0.2511 11.8588 138.279)" fill="#1C383F" width="31.741" height="2.769"/>
					
						<rect x="84.151" y="61.321" transform="matrix(0.251 -0.968 0.968 0.251 14.2182 143.7819)" fill="#1C383F" width="31.741" height="2.765"/>
					
						<rect x="88.881" y="62.55" transform="matrix(0.2511 -0.968 0.968 0.2511 16.5708 149.2754)" fill="#1C383F" width="31.74" height="2.759"/>
				</g>
			</g>
		</g>
		<g>
			<g>
				<path fill-rule="evenodd" clip-rule="evenodd" fill="#DFA505" d="M112.552,72.76 M103.816,111.632
					c0.226,1.961,0.448,3.924,0.637,5.893c0.211,2.197,0.394,4.398,0.566,6.602c0.284,3.639,0.372,7.277,0.243,10.928
					c-0.102,2.832-0.882,5.451-2.139,7.945c-0.912,1.811-1.859,3.605-2.873,5.357c-0.784,1.357-1.809,2.531-3.018,3.557
					c-1.626,1.377-3.503,1.863-5.536,1.475c-2.538-0.486-5.068-1.055-7.553-1.764c-2.377-0.676-4.701-1.549-7.027-2.398
					c-0.767-0.279-1.5-0.699-2.187-1.148c-1.403-0.916-1.848-2.326-1.812-3.922c0.029-1.289,0.363-2.516,0.846-3.709
					c1.058-2.609,1.062-5.293,0.459-7.998c-0.949-4.252-2.914-8.082-4.94-11.891c-1.389-2.613-2.774-5.23-4.051-7.898
					c-0.942-1.967-1.754-4.002-2.531-6.045c-0.636-1.666-0.922-3.43-1.084-5.207c-0.018-0.199-0.083-0.453-0.222-0.576l16.298,3.008
					c3.699,0.891,7.34,1.762,10.954,2.631c0.076-0.773,0.178-1.486,0.207-2.199c0.098-2.426,0.173-4.85,0.256-7.275
					c0.09-2.656,0.155-5.313,0.279-7.968c0.057-1.207,0.316-2.387,0.914-3.46c0.391-0.705,0.931-1.243,1.75-1.399
					c2.16-0.41,4.073,0.177,5.698,1.596c1.616,1.411,2.652,3.173,2.959,5.343c0.288,2.044,0.68,4.074,0.979,6.117
					c0.504,3.447,0.968,6.902,1.451,10.352c0.048,0.344,0.109,0.686,0.174,1.082L103.816,111.632z M115.092,73.283
					c1.466,1.034,2.567,2.343,2.964,4.148c0.566,2.589-0.692,5.38-3.031,6.713c-0.152,0.087-0.299,0.184-0.499,0.307
					c1.298,1.55,1.732,3.314,1.378,5.223c-0.35,1.891-1.441,3.331-3.071,4.382c1.585,2.246,1.875,4.59,0.579,7.018
					c-1.293,2.422-3.435,3.398-6.171,3.375L115.092,73.283z"/>
			</g>
		</g>
		<g>
			
				<rect x="79.627" y="134.063" transform="matrix(0.3773 -0.9261 0.9261 0.3773 -87.9553 172.1342)" fill="#12292D" width="8.803" height="34.823"/>
			<path fill="#A7A7A7" d="M101.532,158.579L66.33,144.218l-10.729,25.131c11.85,5.77,25.819,7.857,38.462,7.127L101.532,158.579z"
				/>
			<path fill="#B7B7B7" d="M83.928,151.403l-17.598-7.186l-10.729,25.131c5.778,2.814,12.029,4.828,17.984,5.873L83.928,151.403z"/>
		</g>
	</g>
</g>
</svg>
