<?xml version="1.0" encoding="utf-8"?>
<!-- Generator: Adobe Illustrator 16.0.0, SVG Export Plug-In . SVG Version: 6.00 Build 0)  -->
<!DOCTYPE svg PUBLIC "-//W3C//DTD SVG 1.1//EN" "http://www.w3.org/Graphics/SVG/1.1/DTD/svg11.dtd">
<svg version="1.1" id="Capa_1" xmlns="http://www.w3.org/2000/svg" xmlns:xlink="http://www.w3.org/1999/xlink" x="0px" y="0px"
	 width="178px" height="179px" viewBox="0 0 178 179" enable-background="new 0 0 178 179" xml:space="preserve">
<g>
	<g>
		<g>
			<defs>
				<circle id="SVGID_1_" cx="89.297" cy="89.305" r="87.597"/>
			</defs>
			<clipPath id="SVGID_2_">
				<use xlink:href="#SVGID_1_"  overflow="visible"/>
			</clipPath>
		</g>
		<g>
			<defs>
				<circle id="SVGID_3_" cx="89.297" cy="89.305" r="87.597"/>
			</defs>
			<use xlink:href="#SVGID_3_"  overflow="visible" fill="#2A4D59"/>
			<clipPath id="SVGID_4_">
				<use xlink:href="#SVGID_3_"  overflow="visible"/>
			</clipPath>
			<g clip-path="url(#SVGID_4_)">
				<polyline fill="#1C383F" points="115.697,29.504 183.585,111.394 110.467,209.609 59.799,148.036 				"/>
			</g>
		</g>
		<g>
			<defs>
				<circle id="SVGID_5_" cx="89.297" cy="89.305" r="87.597"/>
			</defs>
			<clipPath id="SVGID_6_">
				<use xlink:href="#SVGID_5_"  overflow="visible"/>
			</clipPath>
		</g>
	</g>
	<g>
		<g>
			<g>
				
					<rect x="49.827" y="35.303" transform="matrix(-0.9846 0.1747 -0.1747 -0.9846 189.6626 161.1397)" fill-rule="evenodd" clip-rule="evenodd" fill="#FFFFFF" width="75.821" height="107.231"/>
				<g>
					<circle fill-rule="evenodd" clip-rule="evenodd" fill="#FFCC00" cx="111.582" cy="92.085" r="8.028"/>
					<path fill-rule="evenodd" clip-rule="evenodd" fill="#E2A805" d="M108.404,99.457c-1.269-0.547-2.383-1.416-3.222-2.522
						l6.399-4.85L108.404,99.457z"/>
					<path fill-rule="evenodd" clip-rule="evenodd" fill="#E2A805" d="M105.183,96.935c-0.744-0.982-1.274-2.15-1.504-3.446
						c-0.45-2.527,0.339-4.988,1.928-6.764l5.976,5.36L105.183,96.935z"/>
					<path fill-rule="evenodd" clip-rule="evenodd" fill="#FFED94" d="M105.606,86.725c1.155-1.291,2.735-2.218,4.571-2.544
						l1.404,7.904L105.606,86.725z"/>
					<path fill-rule="evenodd" clip-rule="evenodd" fill="#F7DD5C" d="M110.178,84.181l1.404,7.904l4.65-6.544
						C114.54,84.34,112.384,83.79,110.178,84.181z"/>
				</g>
				<g>
					
						<rect x="59.975" y="107.52" transform="matrix(-0.9846 0.1747 -0.1747 -0.9846 174.4454 200.626)" fill-rule="evenodd" clip-rule="evenodd" fill="#CCCCCC" width="36.834" height="0.943"/>
					
						<rect x="58.402" y="90.599" transform="matrix(-0.9846 0.1748 -0.1748 -0.9846 139.9628 188.597)" fill-rule="evenodd" clip-rule="evenodd" fill="#FFCC00" width="6.548" height="19.725"/>
					
						<rect x="66.508" y="96.658" transform="matrix(-0.9846 0.1748 -0.1748 -0.9846 156.4579 191.8239)" fill-rule="evenodd" clip-rule="evenodd" fill="#E2A805" width="6.548" height="12.288"/>
					
						<rect x="74.327" y="99.463" transform="matrix(-0.9846 0.1747 -0.1747 -0.9846 172.0912 191.9067)" fill-rule="evenodd" clip-rule="evenodd" fill="#EDCC45" width="6.547" height="8.126"/>
					
						<rect x="81.449" y="94.359" transform="matrix(-0.9846 0.1748 -0.1748 -0.9846 185.6795 184.3005)" fill-rule="evenodd" clip-rule="evenodd" fill="#FCE97A" width="6.547" height="11.938"/>
					
						<rect x="89.2" y="96.411" transform="matrix(-0.9847 0.1745 -0.1745 -0.9847 201.0957 183.6788)" fill-rule="evenodd" clip-rule="evenodd" fill="#FCEA92" width="6.549" height="8.535"/>
					
						<rect x="105.879" y="102.35" transform="matrix(-0.9846 0.1746 -0.1746 -0.9846 231.3671 185.2826)" fill-rule="evenodd" clip-rule="evenodd" fill="#CCCCCC" width="3.305" height="0.943"/>
					
						<rect x="110.589" y="100.936" transform="matrix(-0.9846 0.1748 -0.1748 -0.9846 246.942 181.0661)" fill-rule="evenodd" clip-rule="evenodd" fill="#CCCCCC" width="9.817" height="0.942"/>
				</g>
				
					<rect x="60.808" y="112.115" transform="matrix(-0.9846 0.1747 -0.1747 -0.9846 168.6266 211.2714)" fill-rule="evenodd" clip-rule="evenodd" fill="#12292D" width="28.41" height="1.887"/>
				
					<rect x="61.387" y="115.366" transform="matrix(-0.9846 0.1747 -0.1747 -0.9846 170.3387 217.6275)" fill-rule="evenodd" clip-rule="evenodd" fill="#CCCCCC" width="28.41" height="1.888"/>
				
					<rect x="61.963" y="118.619" transform="matrix(-0.9846 0.1748 -0.1748 -0.9846 172.0574 223.9752)" fill-rule="evenodd" clip-rule="evenodd" fill="#CCCCCC" width="28.41" height="1.887"/>
				
					<rect x="62.539" y="121.873" transform="matrix(-0.9846 0.1748 -0.1748 -0.9846 173.7708 230.3327)" fill-rule="evenodd" clip-rule="evenodd" fill="#CCCCCC" width="28.411" height="1.887"/>
				
					<rect x="63.118" y="125.125" transform="matrix(-0.9846 0.1747 -0.1747 -0.9846 175.4786 236.6907)" fill-rule="evenodd" clip-rule="evenodd" fill="#CCCCCC" width="28.41" height="1.887"/>
				
					<rect x="63.696" y="128.377" transform="matrix(-0.9846 0.1747 -0.1747 -0.9846 177.1987 243.0416)" fill-rule="evenodd" clip-rule="evenodd" fill="#CCCCCC" width="28.409" height="1.888"/>
				
					<rect x="64.272" y="131.629" transform="matrix(-0.9846 0.1747 -0.1747 -0.9846 178.9106 249.3967)" fill-rule="evenodd" clip-rule="evenodd" fill="#CCCCCC" width="28.409" height="1.89"/>
				
					<rect x="64.958" y="136.123" transform="matrix(-0.9846 0.1747 -0.1747 -0.9846 166.9559 259.4389)" fill-rule="evenodd" clip-rule="evenodd" fill="#CCCCCC" width="14.206" height="1.888"/>
				
					<rect x="93.788" y="106.263" transform="matrix(-0.9846 0.1747 -0.1747 -0.9846 233.0537 193.8982)" fill-rule="evenodd" clip-rule="evenodd" fill="#CCCCCC" width="28.41" height="1.887"/>
				
					<rect x="94.365" y="109.515" transform="matrix(-0.9846 0.1747 -0.1747 -0.9846 234.7663 200.2523)" fill-rule="evenodd" clip-rule="evenodd" fill="#CCCCCC" width="28.41" height="1.888"/>
				
					<rect x="94.943" y="112.768" transform="matrix(-0.9846 0.1747 -0.1747 -0.9846 236.4847 206.6022)" fill-rule="evenodd" clip-rule="evenodd" fill="#CCCCCC" width="28.409" height="1.887"/>
				
					<rect x="95.519" y="116.02" transform="matrix(-0.9846 0.1747 -0.1747 -0.9846 238.196 212.9581)" fill-rule="evenodd" clip-rule="evenodd" fill="#CCCCCC" width="28.41" height="1.888"/>
				
					<rect x="96.096" y="119.273" transform="matrix(-0.9846 0.1747 -0.1747 -0.9846 239.9056 219.3163)" fill-rule="evenodd" clip-rule="evenodd" fill="#CCCCCC" width="28.41" height="1.887"/>
				
					<rect x="96.674" y="122.525" transform="matrix(-0.9846 0.1747 -0.1747 -0.9846 241.6243 225.665)" fill-rule="evenodd" clip-rule="evenodd" fill="#CCCCCC" width="28.41" height="1.887"/>
				
					<rect x="97.251" y="125.777" transform="matrix(-0.9846 0.1747 -0.1747 -0.9846 243.3389 232.019)" fill-rule="evenodd" clip-rule="evenodd" fill="#CCCCCC" width="28.41" height="1.888"/>
				
					<rect x="97.893" y="129.766" transform="matrix(-0.9846 0.1747 -0.1747 -0.9846 236.9625 240.5539)" fill-rule="evenodd" clip-rule="evenodd" fill="#CCCCCC" width="19.996" height="1.887"/>
			</g>
			<path fill-rule="evenodd" clip-rule="evenodd" fill="#BABABA" d="M116.554,69.003c0.41,2.324-1.138,4.541-3.46,4.953
				l-18.549,3.291l-3.673,10.972l-7.224-9.037l-24.266,4.306c-2.323,0.412-4.541-1.137-4.952-3.461l-3.415-19.239
				c-0.411-2.322,1.137-4.539,3.46-4.952l53.711-9.531c2.322-0.411,4.54,1.138,4.952,3.46L116.554,69.003z"/>
			
				<rect x="49.673" y="45.684" transform="matrix(0.9846 -0.1747 0.1747 0.9846 -7.5062 11.0816)" fill="#08A3BC" width="19.06" height="5.002"/>
		</g>
		
			<rect x="74.208" y="62.473" transform="matrix(-0.9846 0.1747 -0.1747 -0.9846 194.08 109.7443)" fill-rule="evenodd" clip-rule="evenodd" fill="#FFFFFF" width="36.001" height="1.887"/>
		
			<rect x="74.785" y="65.725" transform="matrix(-0.9846 0.1747 -0.1747 -0.9846 195.7925 116.102)" fill-rule="evenodd" clip-rule="evenodd" fill="#FFFFFF" width="36.001" height="1.888"/>
		
			<rect x="75.362" y="68.978" transform="matrix(-0.9846 0.1747 -0.1747 -0.9846 197.5062 122.456)" fill-rule="evenodd" clip-rule="evenodd" fill="#FFFFFF" width="36.001" height="1.887"/>
		
			<rect x="73.065" y="55.594" transform="matrix(-0.9846 0.1747 -0.1747 -0.9846 190.6103 96.292)" fill-rule="evenodd" clip-rule="evenodd" fill="#FFFFFF" width="36.001" height="1.887"/>
		
			<rect x="73.643" y="58.846" transform="matrix(-0.9846 0.1747 -0.1747 -0.9846 192.323 102.6497)" fill-rule="evenodd" clip-rule="evenodd" fill="#FFFFFF" width="36.001" height="1.888"/>
	</g>
	<g>
		<path fill="#12292D" d="M56.708,71.49c-0.207-1.274-0.414-2.55-0.621-3.824c0.047-0.397,0.31-0.525,0.669-0.583
			c2.366-0.376,4.729-0.764,7.094-1.148c0.054-0.008,0.107-0.017,0.173-0.027c-0.01-0.061-0.017-0.104-0.023-0.146
			c-0.102-0.621-0.205-1.242-0.301-1.865c-0.022-0.14-0.036-0.286-0.024-0.428c0.022-0.291,0.271-0.461,0.553-0.384
			c0.103,0.028,0.203,0.071,0.297,0.121c0.323,0.173,0.642,0.354,0.964,0.526c0.769,0.411,1.54,0.814,2.307,1.23
			c0.896,0.484,1.787,0.977,2.678,1.473c0.262,0.146,0.535,0.287,0.678,0.578c0.013,0.079,0.025,0.157,0.038,0.236
			c-0.046,0.187-0.097,0.369-0.229,0.518c-0.153,0.172-0.304,0.348-0.456,0.521c-0.425,0.484-0.851,0.969-1.275,1.454
			c-0.398,0.455-0.796,0.911-1.193,1.367c-0.519,0.594-1.036,1.188-1.556,1.78c-0.145,0.163-0.287,0.331-0.451,0.474
			c-0.22,0.189-0.49,0.125-0.615-0.137c-0.045-0.095-0.069-0.202-0.087-0.308c-0.116-0.696-0.228-1.393-0.341-2.089
			c-0.007-0.042-0.014-0.084-0.021-0.132c-0.043,0.004-0.074,0.004-0.105,0.009c-2.502,0.407-5.004,0.814-7.506,1.223
			c-0.25,0.041-0.445-0.054-0.563-0.281C56.761,71.596,56.735,71.543,56.708,71.49z"/>
	</g>
</g>
<g>
</g>
<g>
</g>
<g>
</g>
<g>
</g>
<g>
</g>
<g>
</g>
</svg>
