<?xml version="1.0" encoding="utf-8"?>
<!-- Generator: Adobe Illustrator 16.0.0, SVG Export Plug-In . SVG Version: 6.00 Build 0)  -->
<!DOCTYPE svg PUBLIC "-//W3C//DTD SVG 1.1//EN" "http://www.w3.org/Graphics/SVG/1.1/DTD/svg11.dtd">
<svg version="1.1" id="Capa_1" xmlns="http://www.w3.org/2000/svg" xmlns:xlink="http://www.w3.org/1999/xlink" x="0px" y="0px"
	 width="57.778px" height="87.328px" viewBox="0 0 57.778 87.328" enable-background="new 0 0 57.778 87.328" xml:space="preserve">
<polygon fill="#575756" points="0.045,9.076 57.489,0.12 57.534,39.747 0.045,39.747 "/>
<polygon fill="#008DA5" points="57.534,87.328 0,87.328 0,9.333 57.534,21.335 "/>
<g>
	<path fill="#FFFFFF" d="M20.092,66.001c4.902,6.479,14.163,7.758,20.641,2.853c6.477-4.903,7.756-14.162,2.852-20.641
		c-0.4-0.529-0.846-1.016-1.303-1.476c-1.012-1.016-2.145-1.866-3.357-2.53c-0.615-0.338-1.25-0.625-1.902-0.867
		c-0.242-0.091-0.49-0.182-0.742-0.258c-1.547-0.489-3.176-0.718-4.797-0.679c-0.027-0.042-0.053-0.081-0.086-0.123l-0.156,0.119
		c-1.538,0.064-3.067,0.375-4.538,0.921c-0.656-0.863-1.318-1.716-2.049-2.518c-0.154-0.167-0.33-0.267-0.51-0.317
		c-0.105-0.056-0.227-0.099-0.359-0.116c-0.818-0.123-1.625-0.316-2.391-0.611c-0.002-0.037,0.002-0.072,0.002-0.108l-3.529,0.411
		c0.006,0.184,0.037,0.346,0.084,0.496c-0.107,0.435-0.182,0.874-0.23,1.317c-0.857,0.309-1.734,0.545-2.609,0.794
		c-0.559,0.158-0.793,0.888-0.594,1.383c0.232,0.585,0.826,0.756,1.383,0.596c1.139-0.324,2.287-0.625,3.381-1.094
		c0.244-0.109,0.414-0.27,0.514-0.457c0.133-0.16,0.221-0.352,0.24-0.568c0.023-0.332,0.068-0.66,0.131-0.986
		c0.982,0.428,2.021,0.721,3.096,0.898c0.506,0.578,0.971,1.188,1.441,1.798c-0.604,0.333-1.193,0.697-1.758,1.124
		c-3.441,2.607-5.398,6.447-5.758,10.438c-0.064,0.704-0.096,1.411-0.057,2.119c0.037,0.712,0.146,1.422,0.291,2.13
		c0.221,1.105,0.562,2.189,1.047,3.235C18.902,64.229,19.439,65.141,20.092,66.001z M19.672,54.201
		c1.008,0.734,2.154,1.223,3.348,1.459c0.498,1.77,1.303,3.5,2.424,5.103c-2.055,0.112-4.078-0.277-5.857-1.161
		C19.225,57.807,19.252,55.966,19.672,54.201z M22.65,48.624c-0.301,1.692-0.311,3.464-0.029,5.218
		c-0.871-0.273-1.691-0.717-2.404-1.335C20.773,51.097,21.586,49.776,22.65,48.624z M26.979,60.636
		c-0.064-0.08-0.135-0.155-0.201-0.238c-1.139-1.493-1.967-3.107-2.516-4.772c1.863-0.027,3.73-0.609,5.324-1.808
		c1.508-1.132,2.549-2.649,3.102-4.305c1.408,0.956,2.693,2.159,3.795,3.599c0.092,0.12,0.176,0.25,0.264,0.374
		c-0.939,1.702-2.26,3.264-3.953,4.536C31,59.366,29.004,60.227,26.979,60.636z M37.698,54.565c1.002,2.051,1.625,3.333,2,5.5
		c-0.541,2.708-5.459,5.25-6.666,5.458c-1.85-0.729-3.399-1.843-4.856-3.521C30.647,61.213,36.133,58.605,37.698,54.565z
		 M31.118,48.562c-0.414,1.492-1.293,2.867-2.622,3.871c-1.41,1.068-3.086,1.543-4.727,1.469c-0.484-2.412-0.393-4.854,0.266-7.101
		C26.441,46.772,28.881,47.381,31.118,48.562z M30.862,44.647c0.396,0.896,0.582,1.854,0.572,2.807
		c-1.686-0.813-3.465-1.316-5.264-1.495C27.662,45.208,29.254,44.771,30.862,44.647z M37.852,46.147
		c0.305,1.959,0.072,4.006-0.643,5.938c-1.213-1.519-2.623-2.765-4.166-3.738c0.143-1.235,0.02-2.507-0.396-3.712
		C34.465,44.752,36.241,45.261,37.852,46.147z M41.858,49.613c0.975,3.161,0.494,6.703-1.256,9.748
		c-0.391-2.02-1.178-4.018-2.379-5.871c0.908-2.018,1.328-4.185,1.217-6.31c0.875,0.671,1.68,1.455,2.375,2.372
		C41.831,49.574,41.844,49.596,41.858,49.613z M40.334,66.07c0.066-0.098,0.135-0.189,0.195-0.289
		c0.297-1.315,0.414-2.681,0.354-4.061c1.814-2.402,2.832-5.225,2.98-8.039c1.227,4.321,0.055,9.09-3.244,12.338
		C40.522,66.035,40.432,66.057,40.334,66.07z M34.823,66.523c0.656-0.371,3.834-1.917,5.25-4.208
		c-0.08,0.946-0.291,3.875-0.844,4.551C37.989,67.231,35.776,66.709,34.823,66.523z M24.682,67.371
		c2.854,0.839,6.026,0.736,9.022-0.349c1.348,0.455,2.742,0.728,4.131,0.801c0.113-0.032,0.219-0.072,0.326-0.109
		c-0.037,0.088-0.082,0.171-0.121,0.257C33.803,70.391,28.586,70.09,24.682,67.371z M21.424,64.024
		c-0.553-0.828-1.002-1.696-1.334-2.601c2.006,0.752,4.217,0.996,6.426,0.72c1.434,1.667,3.127,2.979,4.954,3.922
		C27.881,66.859,24.193,66.15,21.424,64.024z"/>
	<path fill="#FFFFFF" d="M20.033,31.274c-1.826,1.383-3.986-1.436-2.162-2.815C19.699,27.073,21.859,29.893,20.033,31.274z"/>
	<path fill="#FFFFFF" d="M24.719,32.832c-0.369,0.832-1.174,1.957-2.186,2.029c-0.521,0.041-1.078-0.035-1.615-0.19l0.098,1.212
		c0.055,1.375,0.199,2.082,0.252,3.451l-3.525,0.417c-0.051-1.292-0.193-1.918-0.242-3.21l-0.014-1.787
		c-0.35,0.229-0.658,0.495-0.875,0.911c-0.33,0.633-0.438,1.369-0.623,2.052c-0.23,0.873-1.641,0.689-1.404-0.193
		c0.242-0.912,0.416-1.828,0.854-2.672c0.482-0.923,1.299-1.262,2.141-1.785c0.08-0.052,0.16-0.08,0.24-0.097
		c0.727-0.899,2.113-0.912,2.91,0.105c0.406,0.19,0.855,0.302,1.289,0.367c0.678,0.108,1.146-0.61,1.391-1.155
		C23.779,31.449,25.09,31.995,24.719,32.832z"/>
</g>
</svg>
