<?xml version="1.0" encoding="utf-8"?>
<!-- Generator: Adobe Illustrator 16.0.0, SVG Export Plug-In . SVG Version: 6.00 Build 0)  -->
<!DOCTYPE svg PUBLIC "-//W3C//DTD SVG 1.1//EN" "http://www.w3.org/Graphics/SVG/1.1/DTD/svg11.dtd">
<svg version="1.1" id="Capa_1" xmlns="http://www.w3.org/2000/svg" xmlns:xlink="http://www.w3.org/1999/xlink" x="0px" y="0px"
	 width="57.778px" height="87.328px" viewBox="0 0 57.778 87.328" enable-background="new 0 0 57.778 87.328" xml:space="preserve">
<polygon fill="#575756" points="0.322,8.125 57.781,0.328 57.811,39.531 0.322,39.531 "/>
<polygon fill="#CC6666" points="57.671,87.328 0.138,87.328 0.138,8.143 57.671,20.31 "/>
<g>
	<g>
		<path fill-rule="evenodd" clip-rule="evenodd" fill="#FFFFFF" d="M16.797,46.73c-0.631-0.279-0.918-0.91-0.726-1.535
			c0.194-0.629,0.779-0.98,1.463-0.852c0.709,0.131,1.408,0.324,2.122,0.424c3.391,0.473,5.942-0.852,7.565-3.871
			c0.369-0.688,0.747-1.383,1.229-1.988c1.441-1.816,3.964-2.361,6.218-1.412c2.124,0.895,3.533,3.16,3.284,5.375
			c-0.224,1.975-1.134,3.705-2.106,5.389c-2.609,4.52-6.657,6.711-11.771,6.945c-2.474,0.113-4.962-0.057-7.444-0.1
			c-0.221-0.002-0.442,0.006-0.66-0.01c-0.723-0.045-1.237-0.545-1.254-1.207c-0.016-0.699,0.49-1.291,1.229-1.291
			c1.281-0.006,2.562,0.055,3.844,0.109c2.126,0.092,4.244,0.135,6.348-0.287c3.903-0.795,6.521-3.168,8.197-6.682
			c0.361-0.756,0.676-1.541,0.949-2.336c0.494-1.438-0.172-2.93-1.546-3.562c-1.378-0.635-2.837-0.199-3.646,1.109
			c-0.474,0.766-0.883,1.574-1.398,2.309c-1.008,1.432-2.25,2.617-3.913,3.277c-1.159,0.463-2.339,0.836-3.616,0.756
			C19.958,47.213,17.034,46.834,16.797,46.73z"/>
		
			<path fill-rule="evenodd" clip-rule="evenodd" fill="none" stroke="#FFFFFF" stroke-width="1.8333" stroke-linecap="round" stroke-miterlimit="10" d="
			M18.721,41.59c0.155,0.041,0.305,0.102,0.454,0.156c1.596,0.547,2.631,0.193,3.563-1.205c0.677-1.014,1.264-2.105,2.058-3.02
			c4.334-4.991,12.105-4.264,15.418,1.465c1.599,2.76,1.781,5.711,0.648,8.717c-0.469,1.301-0.979,2.588-1.391,3.904
			c-0.76,2.43-0.189,4.051,1.875,5.549c0.242,0.176,0.5,0.334,0.735,0.52"/>
		
			<path fill-rule="evenodd" clip-rule="evenodd" fill="none" stroke="#FFFFFF" stroke-width="1.5362" stroke-linecap="round" stroke-miterlimit="10" d="
			M20.62,38.162c1.438-2.596,3.349-4.719,6.106-6.014c8.897-4.176,19.033,2.631,18.403,12.387c-0.084,1.291-0.323,2.561-0.924,3.766
			c-0.501,1.006-0.804,2.113-1.172,3.182c-0.179,0.529-0.183,1.025,0.267,1.482"/>
		<path fill-rule="evenodd" clip-rule="evenodd" fill="#FFFFFF" d="M32.646,58.885c1.582,1.316,3.109,2.697,4.672,4.035
			c0.328,0.277,0.73,0.463,1.073,0.725c0.528,0.404,0.662,1.021,0.366,1.525c-0.349,0.594-1.048,0.861-1.657,0.52
			c-0.782-0.438-1.567-0.904-2.252-1.473c-1.315-1.1-2.589-2.254-3.835-3.434c-0.87-0.822-1.861-1.172-3.045-1.172
			c-3.041,0-6.084-0.027-9.127-0.072c-0.959-0.016-1.92-0.109-2.873-0.207c-0.777-0.08-1.238-0.664-1.172-1.402
			c0.062-0.676,0.646-1.135,1.4-1.115c3.98,0.096,7.961,0.182,11.941,0.293C30.083,57.035,31.34,57.568,32.646,58.885z"/>
		<path fill-rule="evenodd" clip-rule="evenodd" fill="#FFFFFF" d="M31.207,42.314"/>
		
			<path fill-rule="evenodd" clip-rule="evenodd" fill="none" stroke="#FFFFFF" stroke-width="1.8333" stroke-linecap="round" stroke-miterlimit="10" d="
			M32.82,42.336c-2.247,5.492-6.664,8.992-16.414,7.492"/>
		<path fill-rule="evenodd" clip-rule="evenodd" fill="#FFFFFF" d="M41.202,61.445c-0.225,0.73-0.995,1.117-1.671,0.748
			c-2.714-1.479-4.461-3.715-5.852-6.582c-0.371-0.771-0.249-1.439,0.322-1.826c0.605-0.41,1.454-0.279,1.762,0.393
			c1.132,2.482,2.57,4.379,4.783,5.758C41.176,60.326,41.392,60.834,41.202,61.445z"/>
	</g>
	<path fill="none" stroke="#FFFFFF" stroke-width="1.6805" stroke-linecap="round" stroke-miterlimit="10" d="M17.798,61.984
		c5.334,0.285,9.137,0.023,10.711,0.67c1.573,0.645,3.857,2.906,6.19,4.35"/>
	<path fill="none" stroke="#FFFFFF" stroke-width="1.2222" stroke-linecap="round" stroke-miterlimit="10" d="M20.078,65.562
		c3.568,0.312,5.477-0.162,6.968,0.375c1.493,0.537,2.695,1.889,4.411,2.971"/>
</g>
</svg>
