<?xml version="1.0" encoding="utf-8"?>
<!-- Generator: Adobe Illustrator 16.0.0, SVG Export Plug-In . SVG Version: 6.00 Build 0)  -->
<!DOCTYPE svg PUBLIC "-//W3C//DTD SVG 1.1//EN" "http://www.w3.org/Graphics/SVG/1.1/DTD/svg11.dtd">
<svg version="1.1" id="Capa_1" xmlns="http://www.w3.org/2000/svg" xmlns:xlink="http://www.w3.org/1999/xlink" x="0px" y="0px"
	 width="57.778px" height="87.328px" viewBox="0 0 57.778 87.328" enable-background="new 0 0 57.778 87.328" xml:space="preserve">
<g>
	<polygon fill="#575756" points="0.245,10.14 57.741,0 57.778,40.037 0.29,40.037 	"/>
	<polygon fill="#695890" points="57.778,87.328 0.245,87.328 0.245,10.132 57.778,21.994 	"/>
	<g>
		<path fill="#FFFFFF" d="M52.321,46.384l0.16-0.505l-0.094-0.029l0.098-0.311l-0.225-0.245c-0.244-0.264-5.977-6.475-11.25-8.14
			c-2.812-0.889-4.697-0.219-5.965,1.061c-0.27-1.824-1.412-3.52-4.293-4.43c-5.273-1.665-13.539,0.127-13.885,0.205l-0.328,0.071
			l-0.098,0.31l-0.09-0.028l-0.045,0.141l-1.051-0.332L8.083,56.872l38.262,12.083l7.025-22.24L52.321,46.384z M28.678,61.086
			c0.631-1.731,1.838-4.445,5.596-3.259c2.764,0.873,6.354,3.702,10.664,8.394L28.678,61.086z M40.635,38.343
			c4.498,1.42,9.549,6.504,10.666,7.671l-5.965,18.888c-4.266-4.591-7.859-7.37-10.686-8.264c-1.4-0.441-2.6-0.424-3.566-0.125
			c0.953-1.003,2.453-2.464,4.299-3.875l-0.867,0.719c0.26,0.149,0.918,0.454,1.189,0.513c6.082,1.315,11.086-6.771,11.291-7.1
			l0.443-0.709l-0.727-0.214c-4.084-1.198-8.494-1.466-11.105,1.095c-1.732,1.697-2,4.606-2.006,5.606
			c-1.607,1.345-2.875,2.639-3.645,3.483l5.131-16.277C36.307,38.015,38.139,37.554,40.635,38.343z M36.389,47.353
			c2.254-1.913,6.473-1.93,9.602-0.884c-2.945,0.702-9.158,3.562-11.41,5.275C34.581,50.709,35.047,48.491,36.389,47.353z
			 M45.674,47.353c-1.205,2.09-6.912,7.798-10.531,5.507C36.571,51.211,43.147,48.038,45.674,47.353z M27.536,55.079
			c-0.525-0.705-1.521-1.296-2.766-1.689c-2.83-0.894-7.369-0.682-13.498,0.627l5.965-18.89c1.584-0.312,8.637-1.573,13.139-0.151
			c2.545,0.803,3.766,2.276,3.721,4.467l-5.582,17.547C28.514,56.989,28.063,55.783,27.536,55.079z M24.395,54.578
			c3.752,1.186,3.184,4.103,2.705,5.884l-16.26-5.135C17.063,53.96,21.627,53.704,24.395,54.578z"/>
		
			<rect x="18.305" y="41.56" transform="matrix(0.9536 0.3012 -0.3012 0.9536 14.3542 -3.7515)" fill="#FFFFFF" width="2.075" height="6.222"/>
		
			<rect x="21.409" y="40.057" transform="matrix(0.9536 0.3012 -0.3012 0.9536 14.4072 -4.7007)" fill="#FFFFFF" width="2.075" height="8.623"/>
		
			<rect x="23.794" y="43.236" transform="matrix(0.9535 0.3015 -0.3015 0.9535 15.1288 -5.3296)" fill="#FFFFFF" width="2.073" height="6.223"/>
		
			<rect x="26.165" y="46.495" transform="matrix(0.9536 0.3012 -0.3012 0.9536 15.8334 -5.9475)" fill="#FFFFFF" width="2.075" height="3.749"/>
	</g>
</g>
</svg>
