<?xml version="1.0" encoding="utf-8"?>
<!-- Generator: Adobe Illustrator 16.0.0, SVG Export Plug-In . SVG Version: 6.00 Build 0)  -->
<!DOCTYPE svg PUBLIC "-//W3C//DTD SVG 1.1//EN" "http://www.w3.org/Graphics/SVG/1.1/DTD/svg11.dtd">
<svg version="1.1" id="Capa_1" xmlns="http://www.w3.org/2000/svg" xmlns:xlink="http://www.w3.org/1999/xlink" x="0px" y="0px"
	 width="500px" height="119.81px" viewBox="0 0 500 119.81" enable-background="new 0 0 500 119.81" xml:space="preserve">
<g>
	<path fill-rule="evenodd" clip-rule="evenodd" fill="#FFFFFF" d="M419.831,1.692c1.57,0.535,2.253,1.726,2.692,3.269
		c2.209,7.849,4.496,15.671,6.758,23.499c0.359,1.243,0.919,2.39,1.564,3.506c1.51,2.598,3.935,3.481,6.771,3.506
		c3.004,0.019,6.004-0.027,9.005-0.042c7.346-0.036,14.688-0.07,22.028-0.104c1.121-0.006,2.232-0.084,3.332-0.316
		c1.942-0.414,3.366-1.494,4.315-3.223c0.605-1.101,1.013-2.289,1.353-3.499c2.241-8.119,4.489-16.238,6.734-24.354
		c0.352-1.266,1.021-2.221,2.429-2.456c2.892-0.011,5.777-0.023,8.673-0.039c0.231-0.005,0.497,0.073,0.682-0.166
		c0.051,0,0.103,0,0.159,0c1.566,0.675,1.986,1.923,1.991,3.545c0.136,28.749,0.297,57.496,0.455,86.24
		c0.034,5.845,0.072,11.685,0.102,17.526c0.016,4.144-2.612,7.569-6.589,8.612c-0.192,0.047-0.453-0.019-0.564,0.244
		c-1.088,0.006-2.184,0.013-3.274,0.016c-0.091-0.183-0.278-0.142-0.429-0.166c-4.339-0.682-8.691-1.223-13.066-1.632
		c-7.258-0.667-14.531-1.094-21.82-0.999c-9.807,0.133-19.559,0.952-29.259,2.375c-1.525,0.227-3.063,0.367-4.552,0.802
		c-1.09,0.009-2.184,0.012-3.279,0.02c-0.086-0.267-0.346-0.231-0.541-0.284c-3.302-0.861-5.285-3.033-6.237-6.247
		c-0.076-0.271-0.024-0.602-0.302-0.804c0-0.162-0.005-0.325-0.005-0.491c0.244-0.22,0.227-0.436-0.003-0.655
		c0-0.167,0-0.328-0.003-0.493c0.205-0.156,0.158-0.391,0.158-0.603c-0.012-2.379-0.025-4.768-0.036-7.15
		c-0.003-0.212,0.042-0.442-0.169-0.602c-0.011-2.676-0.026-5.348-0.041-8.025c0.262-0.242,0.155-0.561,0.152-0.847
		c-0.158-28.922-0.312-57.843-0.479-86.762c0-0.288,0.115-0.606-0.161-0.846c0-0.109,0-0.216,0-0.33
		c0.511-0.751,0.859-1.68,1.943-1.818c2.89-0.014,5.778-0.023,8.668-0.041c0.237-0.005,0.496,0.072,0.678-0.164
		C419.721,1.692,419.773,1.692,419.831,1.692z M495.679,56.954c-0.094-17.31-0.188-34.615-0.266-51.929
		c-0.003-0.667-0.146-0.878-0.849-0.858c-2.097,0.061-4.203,0.08-6.306,0.033c-0.735-0.013-1.038,0.214-1.23,0.927
		c-1.479,5.476-2.979,10.941-4.52,16.404c-0.94,3.328-1.666,6.728-2.897,9.971c-1.272,3.356-3.562,5.632-7.188,6.372
		c-1.232,0.252-2.486,0.332-3.743,0.338c-9.471,0.053-18.947,0.095-28.418,0.15c-1.339,0.009-2.674,0.038-4.012-0.084
		c-3.267-0.295-5.885-1.704-7.677-4.508c-0.888-1.383-1.591-2.859-2.051-4.436c-2.3-7.939-4.588-15.879-6.856-23.82
		c-0.192-0.697-0.479-0.954-1.222-0.929c-2.021,0.069-4.041,0.036-6.067,0.056c-1.252,0.016-1.081-0.163-1.078,1.08
		c0.186,34.426,0.375,68.851,0.562,103.275c0.003,0.406,0.03,0.819,0.114,1.218c0.739,3.461,3.521,5.223,7.286,4.625
		c1.32-0.209,2.639-0.428,3.961-0.625c7.102-1.052,14.244-1.713,21.412-2.152c8.657-0.53,17.304-0.292,25.938,0.324
		c6.095,0.439,12.163,1.191,18.211,2.077c4.366,0.646,7.219-1.982,7.182-6.406c-0.046-5.676-0.069-11.354-0.099-17.029
		C495.807,79.667,495.743,68.309,495.679,56.954z"/>
	<path fill-rule="evenodd" clip-rule="evenodd" fill="#FFFFFF" d="M408.375,4.048c0.276,0.239,0.161,0.558,0.161,0.846
		c0.167,28.919,0.32,57.839,0.479,86.762c0.003,0.286,0.109,0.605-0.152,0.847C408.698,63.018,408.536,33.534,408.375,4.048z"/>
	<path fill-rule="evenodd" clip-rule="evenodd" fill="#FFFFFF" d="M408.903,100.528c0.211,0.159,0.166,0.389,0.169,0.602
		c0.011,2.382,0.024,4.771,0.036,7.15c0,0.212,0.047,0.447-0.158,0.603C408.935,106.098,408.919,103.313,408.903,100.528z"/>
	<path fill-rule="evenodd" clip-rule="evenodd" fill="#FFFFFF" d="M408.953,109.375c0.229,0.219,0.247,0.435,0.003,0.655
		C408.956,109.812,408.953,109.596,408.953,109.375z"/>
	<path fill-rule="evenodd" clip-rule="evenodd" fill="#FFFFFF" d="M483.758,97.803c0.699,0.106,1.389,0.284,2.102,0.217
		c0.435-0.038,0.826-0.18,0.953-0.635c0.125-0.483-0.31-0.63-0.616-0.841c-0.312-0.213-0.927-0.261-0.768-0.774
		c0.145-0.464,0.717-0.403,1.146-0.422c0.662-0.028,1.297,0.116,1.892,0.406c0.898,0.449,1.382,1.23,1.296,2.074
		c-0.094,0.913-0.686,1.515-1.738,1.782c-0.301-0.294-0.676-0.156-1.01-0.156c-22.189,0.116-44.375,0.239-66.562,0.359
		c-0.679,0.005-1.36,0.041-2.02-0.16c-0.042-0.011-0.064-0.037-0.062-0.08c-0.141-0.807-0.186-1.61,0-2.415
		c0.047-0.045,0.094-0.094,0.141-0.139c21.102-0.112,42.197-0.228,63.297-0.345c0.226,0.011,0.369,0.128,0.48,0.309
		c0.004,0.474,0.308,0.54,0.688,0.496c0.052-0.011,0.089,0.003,0.119,0.047C483.225,97.837,483.37,98.119,483.758,97.803z"/>
	<path fill-rule="evenodd" clip-rule="evenodd" fill="#FFFFFF" d="M460.637,55.66c0.147,3.154,0.122,6.318,0.184,9.485
		c0.016,0.756-0.208,0.899-0.907,0.885c-1.837-0.038-1.837-0.008-1.848-1.81c-0.023-4.477-0.041-8.956-0.088-13.43
		c-0.009-0.608,0.146-0.789,0.767-0.789c2.059,0.009,2.069-0.019,2.842,1.934c1.13,2.834,2.304,5.646,3.396,8.521
		c0-0.4,0.019-0.802-0.011-1.199c-0.227-2.887-0.271-5.777-0.286-8.672c-0.003-0.467,0.128-0.599,0.594-0.614
		c2.146-0.067,2.146-0.084,2.157,2.073c0.023,4.371,0.039,8.738,0.085,13.105c0.003,0.596-0.075,0.857-0.777,0.848
		c-2.066-0.035-2.071,0.001-2.845-1.94C462.786,61.274,461.565,58.539,460.637,55.66z"/>
	<path fill-rule="evenodd" clip-rule="evenodd" fill="#FFFFFF" d="M472.815,49.846c0.798,0.004,1.59,0.061,2.36,0.255
		c2.297,0.578,3.502,2.191,4.021,4.389c0.501,2.154,0.507,4.333,0.028,6.489c-0.732,3.297-2.737,4.918-6.191,5.087
		c-0.849,0.043-1.688-0.064-2.529-0.105c-0.452-0.023-0.528-0.237-0.531-0.622c-0.016-4.855-0.038-9.71-0.085-14.562
		c-0.003-0.513,0.197-0.671,0.652-0.708C471.303,50.01,472.061,49.924,472.815,49.846z M473.028,57.995
		c0.008,1.476,0.021,2.948,0.026,4.42c0.003,1.145,0.508,1.421,1.526,0.84c0.524-0.299,0.841-0.771,1.083-1.296
		c0.339-0.726,0.494-1.504,0.573-2.292c0.172-1.716,0.21-3.434-0.273-5.111c-0.317-1.102-0.869-2.014-2.149-2.187
		c-0.558-0.08-0.851,0.044-0.827,0.717C473.046,54.723,473.021,56.358,473.028,57.995z"/>
	<path fill-rule="evenodd" clip-rule="evenodd" fill="#FFFFFF" d="M490.604,57.717c0.016,1.813-0.143,3.603-0.846,5.298
		c-0.697,1.677-1.845,2.832-3.746,3.012c-2.066,0.19-3.621-0.757-4.531-2.786c-0.922-2.063-1.117-4.263-0.981-6.494
		c0.097-1.477,0.383-2.923,1.06-4.26c1.069-2.118,2.862-3.085,4.991-2.701c1.313,0.234,2.214,1.025,2.839,2.153
		C490.388,53.734,490.604,55.704,490.604,57.717z M483.679,57.916c0.004,1.255,0.051,2.507,0.407,3.719
		c0.233,0.788,0.504,1.613,1.511,1.713c0.654,0.062,1.182-0.56,1.455-1.732c0.4-1.738,0.448-3.501,0.308-5.274
		c-0.086-1.085-0.159-2.186-0.705-3.161c-0.568-1.021-1.554-1.036-2.174-0.045c-0.241,0.375-0.367,0.789-0.474,1.214
		C483.721,55.521,483.667,56.713,483.679,57.916z"/>
	<path fill-rule="evenodd" clip-rule="evenodd" fill="#FFFFFF" d="M449.004,58.014c-0.015-2.404-0.015-4.802-0.052-7.203
		c-0.003-0.536,0.096-0.769,0.7-0.76c1.855,0.035,3.71,0.017,5.565-0.028c0.556-0.01,0.683,0.173,0.686,0.7
		c0.02,2.03,0.038,2.03-2.02,2.042c-1.807,0.012-1.807,0.012-1.801,1.841c0.013,1.831,0.013,1.831,1.831,1.816
		c1.791-0.009,1.754-0.009,1.814,1.77c0.023,0.697-0.183,0.894-0.856,0.839c-0.73-0.056-1.473,0.014-2.207-0.011
		c-0.435-0.013-0.572,0.142-0.557,0.567c0.028,1.064,0.031,2.129,0.014,3.193c-0.008,0.422,0.143,0.577,0.567,0.562
		c0.955-0.03,1.91,0.003,2.864-0.031c0.472-0.014,0.662,0.09,0.675,0.622c0.046,2.096,0.064,2.096-2.028,2.109
		c-1.392,0.006-2.783-0.028-4.173,0.041c-0.76,0.041-1.026-0.125-1.003-0.949C449.074,62.76,449.017,60.387,449.004,58.014z"/>
	<path fill-rule="evenodd" clip-rule="evenodd" fill="#FFFFFF" d="M427.028,58.128c-0.016-2.404-0.013-4.805-0.048-7.207
		c-0.015-0.561,0.118-0.755,0.716-0.749c1.852,0.03,3.707,0.005,5.567-0.022c0.434-0.008,0.614,0.087,0.629,0.58
		c0.075,2.145,0.095,2.145-2.066,2.157c-1.734,0.008-1.734,0.008-1.727,1.741c0.012,1.927,0.012,1.927,1.97,1.915
		c1.648-0.011,1.605-0.011,1.675,1.663c0.026,0.747-0.177,1.016-0.936,0.947c-0.729-0.069-1.476,0.003-2.21-0.011
		c-0.354-0.005-0.484,0.122-0.476,0.474c0.022,1.121,0.033,2.238,0.016,3.359c-0.006,0.42,0.182,0.492,0.549,0.484
		c0.978-0.021,1.957,0.008,2.943-0.026c0.473-0.019,0.598,0.144,0.611,0.606c0.066,2.11,0.085,2.11-2.02,2.123
		c-1.418,0.006-2.84-0.025-4.255,0.039c-0.697,0.036-0.937-0.111-0.921-0.871C427.093,62.93,427.039,60.529,427.028,58.128z"/>
	<path fill-rule="evenodd" clip-rule="evenodd" fill="#FFFFFF" d="M467.209,80.411c-0.09-2.523-0.125-5.035-0.153-7.544
		c-0.007-0.646,0.156-0.838,0.812-0.816c1.376,0.039,1.376,0.003,1.385,1.373c0.02,3.606,0.022,7.208,0.075,10.808
		c0.008,0.625-0.18,0.769-0.78,0.765c-1.515-0.031-1.515,0-2.067-1.387c-0.843-2.101-1.764-4.17-2.446-6.329
		c-0.043-0.124-0.062-0.268-0.301-0.29c-0.209,0.528,0.049,1.04,0.06,1.552c0.05,1.993,0.062,3.985,0.097,5.979
		c0.003,0.325-0.073,0.462-0.446,0.494c-1.734,0.148-1.734,0.163-1.742-1.569c-0.019-3.519-0.019-7.041-0.073-10.556
		c-0.013-0.669,0.189-0.819,0.824-0.807c1.447,0.033,1.46-0.005,2.001,1.36C465.375,75.764,466.289,78.085,467.209,80.411z"/>
	<path fill-rule="evenodd" clip-rule="evenodd" fill="#FFFFFF" d="M419.744,59.593c-0.013-1.934-0.042-3.869-0.018-5.808
		c0.005-0.547-0.178-0.689-0.698-0.678c-0.681,0.021-1.563,0.314-1.977-0.092c-0.448-0.452-0.082-1.354-0.168-2.049
		c-0.071-0.588,0.167-0.735,0.725-0.733c2.428,0.014,4.863,0.012,7.285-0.044c0.641-0.014,0.811,0.197,0.745,0.79
		c-0.076,0.667,0.292,1.533-0.131,1.969c-0.424,0.439-1.298,0.165-1.964,0.131c-0.659-0.031-0.744,0.239-0.736,0.808
		c0.042,3.844,0.039,7.687,0.085,11.535c0.011,0.636-0.148,0.883-0.801,0.807c-0.747-0.092-1.746,0.333-2.181-0.166
		c-0.37-0.433-0.135-1.399-0.141-2.13C419.752,62.488,419.752,61.04,419.744,59.593z"/>
	<path fill-rule="evenodd" clip-rule="evenodd" fill="#FFFFFF" d="M486.961,71.959c1.485-0.005,1.498-0.005,1.799,1.493
		c0.717,3.578,1.409,7.161,2.148,10.733c0.111,0.535,0.044,0.689-0.535,0.691c-1.785,0-1.778,0.025-2.119-1.793
		c-0.07-0.388,0.008-1.007-0.358-1.091c-0.646-0.147-1.354-0.055-2.03-0.011c-0.221,0.011-0.192,0.294-0.229,0.475
		c-0.102,0.532-0.263,1.065-0.292,1.604c-0.036,0.724-0.378,0.866-1.04,0.849c-1.567-0.039-1.562-0.004-1.239-1.525
		c0.734-3.462,1.494-6.92,2.164-10.396c0.165-0.849,0.489-1.183,1.32-1.028C486.683,71.985,486.823,71.959,486.961,71.959z
		 M486.784,75.105c-0.201,1.193-0.393,2.395-0.606,3.586c-0.239,1.365-0.211,1.39,1.152,1.287c0.378-0.026,0.463-0.142,0.4-0.488
		c-0.224-1.339-0.437-2.679-0.642-4.022C487.058,75.293,486.984,75.173,486.784,75.105z"/>
	<path fill-rule="evenodd" clip-rule="evenodd" fill="#FFFFFF" d="M441.119,56.379c0.013,1.58,0.021,3.167,0.021,4.75
		c0,0.459-0.008,0.928-0.068,1.386c-0.419,3.133-2.25,4.066-5.298,3.75c-0.435-0.043-0.625-0.253-0.546-0.702
		c0.044-0.244,0.039-0.491,0.062-0.736c0.113-1.165,0.113-1.172,1.279-1.241c0.69-0.045,1.111-0.38,1.324-1.021
		c0.18-0.535,0.165-1.076,0.162-1.62c-0.011-3.359-0.021-6.717-0.061-10.075c-0.007-0.552,0.11-0.808,0.713-0.75
		c0.756,0.074,1.73-0.314,2.216,0.128c0.499,0.457,0.145,1.443,0.168,2.196C441.128,53.759,441.116,55.069,441.119,56.379z"/>
	<path fill-rule="evenodd" clip-rule="evenodd" fill="#FFFFFF" d="M454.177,78.54c-0.012-1.909-0.012-3.82-0.038-5.729
		c-0.011-0.459,0.054-0.699,0.605-0.687c1.476,0.033,2.951,0.01,4.422-0.019c0.424-0.008,0.554,0.12,0.572,0.552
		c0.073,1.66,0.094,1.66-1.571,1.669c-1.496,0.006-1.496,0.006-1.486,1.508c0.011,1.468,0.011,1.468,1.457,1.462
		c1.596-0.009,1.586-0.009,1.471,1.604c-0.026,0.352-0.131,0.48-0.479,0.472c-0.571-0.009-1.147,0.039-1.719-0.004
		c-0.594-0.047-0.753,0.203-0.714,0.751c0.042,0.682,0.055,1.37,0.009,2.05c-0.043,0.599,0.208,0.746,0.752,0.709
		c0.684-0.045,1.37,0,2.048-0.026c0.393-0.016,0.507,0.128,0.532,0.519c0.097,1.654,0.112,1.654-1.501,1.662
		c-1.199,0.009-2.399-0.011-3.601,0.036c-0.561,0.019-0.747-0.128-0.739-0.714C454.22,82.42,454.188,80.48,454.177,78.54z"/>
	<path fill-rule="evenodd" clip-rule="evenodd" fill="#FFFFFF" d="M443.42,58.159c-0.011-2.428-0.006-4.854-0.053-7.28
		c-0.015-0.584,0.1-0.856,0.748-0.794c0.536,0.056,1.09,0.043,1.634-0.003c0.569-0.051,0.747,0.135,0.739,0.713
		c-0.023,1.882,0.008,3.764,0.021,5.648c0.016,2.973,0.019,5.948,0.057,8.917c0.011,0.553-0.102,0.805-0.705,0.738
		c-0.774-0.088-1.811,0.349-2.259-0.163c-0.387-0.446-0.141-1.456-0.146-2.21C443.433,61.867,443.433,60.015,443.42,58.159z"/>
	<path fill-rule="evenodd" clip-rule="evenodd" fill="#FFFFFF" d="M473.489,78.357c0.005,1.029,0.093,1.845,0.359,2.626
		c0.48,1.397,1.438,2.017,2.893,1.779c0.513-0.078,0.685-0.035,0.756,0.528c0.212,1.655,0.182,1.716-1.523,1.772
		c-2.133,0.069-3.726-0.903-4.493-2.879c-0.92-2.385-0.92-4.814,0.047-7.189c0.907-2.225,3.006-3.356,5.34-3.015
		c0.579,0.084,1.033,0.228,0.728,0.972c-0.062,0.146-0.067,0.32-0.078,0.484c-0.044,0.643-0.241,0.9-0.999,0.732
		c-1.035-0.23-1.882,0.308-2.409,1.296C473.585,76.431,473.513,77.491,473.489,78.357z"/>
	<path fill-rule="evenodd" clip-rule="evenodd" fill="#FFFFFF" d="M441.355,79.161c0.014-2.107,0.285-3.795,1.398-5.215
		c1.23-1.573,2.878-2.071,4.812-1.777c0.525,0.08,0.799,0.314,0.551,0.886c-0.036,0.095-0.036,0.211-0.052,0.32
		c-0.078,0.68-0.135,1.204-1.147,0.954c-0.996-0.245-1.905,0.371-2.337,1.393c-0.813,1.918-0.819,3.886-0.038,5.81
		c0.476,1.18,1.421,1.627,2.814,1.38c0.509-0.089,0.586,0.036,0.639,0.486c0.213,1.726,0.16,1.797-1.616,1.831
		c-2.283,0.039-3.958-1.223-4.63-3.514C441.474,80.768,441.34,79.798,441.355,79.161z"/>
	<path fill-rule="evenodd" clip-rule="evenodd" fill="#FFFFFF" d="M434.935,75.076c-0.25,1.519-0.492,3.042-0.756,4.561
		c-0.291,1.637-0.637,3.264-0.869,4.907c-0.106,0.766-0.585,0.68-1.046,0.621c-0.596-0.083-0.197-0.542-0.158-0.758
		c0.676-3.836,1.392-7.666,2.079-11.502c0.083-0.472,0.241-0.679,0.775-0.683c0.572-0.008,0.731,0.214,0.822,0.725
		c0.549,3.003,1.132,5.998,1.702,8.995c0.018,0.097,0.06,0.186,0.231,0.272c0.183-1.214,0.341-2.431,0.554-3.637
		c0.339-1.936,0.716-3.861,1.049-5.795c0.073-0.43,0.239-0.569,0.683-0.58c0.533-0.016,0.646,0.128,0.549,0.646
		c-0.734,3.913-1.45,7.826-2.152,11.74c-0.075,0.43-0.239,0.592-0.687,0.578c-0.419-0.014-0.678-0.037-0.779-0.561
		C436.32,81.421,435.538,78.276,434.935,75.076z"/>
	<path fill-rule="evenodd" clip-rule="evenodd" fill="#FFFFFF" d="M423.968,81.124c0.076-2.235,0.51-4.386,1.54-6.387
		c0.521-1.013,1.2-1.885,2.296-2.346c1.647-0.697,3.084-0.035,3.586,1.68c0.405,1.363,0.335,2.756,0.135,4.138
		c-0.242,1.737-0.685,3.422-1.577,4.957c-0.544,0.941-1.248,1.719-2.333,2.054c-1.439,0.456-2.691-0.128-3.254-1.526
		C424.032,82.87,423.983,81.996,423.968,81.124z M430.249,76.125c-0.031-0.381-0.039-0.827-0.106-1.255
		c-0.104-0.635-0.286-1.258-1.02-1.438c-0.724-0.175-1.265,0.181-1.702,0.719c-0.172,0.213-0.341,0.437-0.466,0.674
		c-1.147,2.257-1.643,4.666-1.512,7.188c0.036,0.838,0.119,1.751,1.145,2.042c0.784,0.229,1.552-0.3,2.155-1.404
		c0.128-0.237,0.255-0.483,0.354-0.733C429.814,80.07,430.175,78.154,430.249,76.125z"/>
	<path fill-rule="evenodd" clip-rule="evenodd" fill="#FFFFFF" d="M449.47,78.603c-0.011-1.932-0.008-3.869-0.038-5.804
		c-0.011-0.488,0.121-0.646,0.637-0.653c1.892-0.021,1.892-0.042,1.902,1.837c0.019,3.46,0.026,6.918,0.067,10.379
		c0.013,0.572-0.155,0.727-0.723,0.73c-1.812-0.003-1.812,0.019-1.819-1.749C449.488,81.762,449.479,80.178,449.47,78.603z"/>
	<path fill-rule="evenodd" clip-rule="evenodd" fill="#FFFFFF" d="M481.486,78.51c0.012,1.904,0.008,3.819,0.044,5.728
		c0.011,0.528-0.134,0.688-0.678,0.692c-1.872,0.008-1.872,0.033-1.876-1.858c-0.02-3.438-0.025-6.874-0.075-10.306
		c-0.007-0.608,0.151-0.79,0.772-0.783c1.778,0.019,1.778-0.009,1.791,1.785C481.47,75.35,481.48,76.932,481.486,78.51z"/>
	<path fill-rule="evenodd" clip-rule="evenodd" fill="#FFFFFF" d="M417.452,80.674c0.047-2.107,0.442-4.122,1.628-5.904
		c1.111-1.671,2.601-2.709,4.711-2.521c0.275,0.027,0.789-0.084,0.676,0.439c-0.083,0.402-0.031,1.018-0.851,0.871
		c-1.252-0.228-2.256,0.319-2.966,1.322c-1.635,2.312-2.071,4.892-1.474,7.63c0.273,1.257,1.23,1.756,2.568,1.527
		c0.255-0.048,0.654-0.406,0.698,0.242c0.022,0.432,0.161,0.824-0.5,0.98c-2.184,0.503-3.784-0.45-4.301-2.631
		C417.491,81.984,417.455,81.332,417.452,80.674z"/>
	<path fill-rule="evenodd" clip-rule="evenodd" fill="#FFFFFF" d="M418.433,99.655c0.659,0.2,1.341,0.165,2.02,0.16
		c22.188-0.12,44.373-0.244,66.562-0.359c0.334,0,0.709-0.138,1.01,0.156c-0.294,0.203-0.634,0.134-0.952,0.136
		c-22.447,0.128-44.891,0.25-67.333,0.375C419.245,100.123,418.742,100.159,418.433,99.655z"/>
	<path fill-rule="evenodd" clip-rule="evenodd" fill="#FFFFFF" d="M481.809,96.676c-21.1,0.117-42.195,0.233-63.297,0.345
		c0.286-0.333,0.676-0.311,1.058-0.311c20.402-0.111,40.807-0.224,61.213-0.328C481.137,96.379,481.563,96.251,481.809,96.676z"/>
	<path fill-rule="evenodd" clip-rule="evenodd" fill="#FFFFFF" d="M418.371,97.161c-0.186,0.805-0.141,1.608,0,2.415
		C417.77,98.653,417.77,97.983,418.371,97.161z"/>
	<path fill-rule="evenodd" clip-rule="evenodd" fill="#FFFFFF" d="M482.977,97.481c-0.38,0.044-0.684-0.021-0.688-0.496
		C482.517,97.146,482.743,97.318,482.977,97.481z"/>
	<path fill-rule="evenodd" clip-rule="evenodd" fill="#FFFFFF" d="M483.758,97.803c-0.388,0.316-0.533,0.034-0.662-0.275
		C483.315,97.62,483.536,97.714,483.758,97.803z"/>
</g>
<g>
	<g>
		<defs>
			<path id="SVGID_1_" d="M58.702,14.792C36.958,15.017,10.675,36.583,7.147,61.164c0.772-0.908,0.994-2.137,4.239-4.805
				c6.247-5.132,11.787-14.192,16.595-15.047c4.752-0.847,8.571,3.477,11.083,5.595c0.188,0.158,0.891-0.888,1.068-1.066
				c3.955-3.917,3.815-4.643,6.137-7.311c2.719-3.138,6.737-2.947,11.593,1.246c2.512-1.615,5.335-4.78,8.226-8.027
				c6.368-7.156,29.057,6.029,36.207,10.972c-8.24-16.217-21.746-28.045-43.322-27.928C58.877,14.792,58.79,14.792,58.702,14.792"/>
		</defs>
		<clipPath id="SVGID_2_">
			<use xlink:href="#SVGID_1_"  overflow="visible"/>
		</clipPath>
	</g>
	<path fill="#FFFFFF" d="M20.229,41.649c0.006-0.039-0.006-0.05-0.028-0.03L20.229,41.649z"/>
	<path fill="#FFFFFF" d="M8.363,58.814c5.145-4.571,13.45-10.77,15.949-12.802l-0.021-0.019c5.767-5.124,10.271-1.152,15.622,3.558
		c0.2,0.178,0.405,0.353,0.613,0.539c0.976-0.897,1.898-1.924,2.8-2.968c0.15-0.175,0.291-0.355,0.438-0.528
		c0.466-0.554,0.928-1.113,1.371-1.629c1.233-1.479,2.446-2.883,3.749-4.01c3.455-2.993,7.225-3.955,12.496,0.805
		c2.904-1.598,6.225-4.841,9.625-8.163c6.631-6.481,26.87,4.765,36.882,11.4c-4.214-7.051-10.004-13.096-16.911-17.629
		c-8.019-5.264-17.529-8.487-27.806-8.879c-13.477-0.518-26.037,3.92-35.878,11.656C18.189,37.308,11.407,47.3,8.363,58.814
		 M63.251,16.536c10.655,0.406,20.511,3.746,28.821,9.195c8.263,5.43,14.997,12.963,19.443,21.788
		c0.567,0.019,1.144,0.042,1.097,1.179c-0.042,1.05-0.541,1.108-1.067,1.097c-0.303,0.172-0.683,0.199-0.996-0.026
		c-4.746-3.457-15.845-10.505-25.424-13.772c-5.059-1.726-9.639-2.399-12.431-0.858c-0.033,0.028-0.062,0.045-0.086,0.077
		c-3.006,2.937-5.949,5.81-8.732,7.675c-0.271,0.194-0.531,0.384-0.785,0.558c0.233,0.25,0.466,0.51,0.707,0.787
		c0.377,0.427,0.752,0.858-0.113,1.599c-0.863,0.753-1.239,0.314-1.616-0.113c-0.447-0.508-0.881-0.974-1.308-1.397
		c-0.161-0.064-0.325-0.203-0.488-0.47c-0.023-0.025-0.048-0.042-0.067-0.074c-2.257-1.935-4.169-2.712-5.859-2.692
		c-1.167,0.011-2.263,0.407-3.326,1.069c-0.216,0.155-0.43,0.328-0.635,0.506c-1.327,1.155-2.639,2.723-3.984,4.343
		c-1.306,1.563-2.642,3.175-4.143,4.58c1.375,1.152,2.813,2.265,4.352,3.198c0.491,0.3,0.977,0.594,0.376,1.56
		c-0.596,0.976-1.083,0.674-1.577,0.378c-1.798-1.094-3.452-2.407-5.015-3.734c-0.255,0.023-0.547-0.116-0.907-0.549
		c-0.139-0.166-0.238-0.328-0.3-0.461c-0.014-0.014-0.025-0.028-0.043-0.039c-0.053-0.049-0.119-0.1-0.177-0.157
		c-0.594-0.517-0.503-0.436-0.225-0.197c-1.849-1.641-4.229-3.758-6.659-4.833c-1.077-0.478-2.19-0.741-3.286-0.641
		c-0.864,0.159-1.732,0.556-2.613,1.261c0,0-15.526,12.138-18.16,14.638c-0.062,0.246-0.207,0.452-0.55,0.544
		C7.419,62.602,7.371,62.653,7.32,62.7c-0.635,0.647-1.853,0.021-1.68-0.86c2.618-13.414,10.07-25.084,20.42-33.224
		C36.261,20.596,49.279,16.005,63.251,16.536"/>
	<path fill="#FFFFFF" d="M7.638,78.926c0.278,0.042,0.608,0.114,1.191,0.112c1.752-0.009,2.867-1.182,2.859-2.478
		c-0.008-1.351-0.991-1.74-2.082-1.732c-0.568,0.003-0.985,0.026-1.223,0.078L7.638,78.926z M5.008,72.123
		c1.049-0.263,2.754-0.438,4.393-0.444c1.37-0.009,3.055,0.147,4.322,0.932c1.189,0.719,1.946,1.923,1.956,3.562
		c0.009,2.071-0.89,3.603-2.215,4.585c-1.301,0.996-3.144,1.469-5.13,1.482c-0.533,0.003-0.979-0.074-1.26-0.091L6.051,87.55
		l-3.872,0.022L5.008,72.123z"/>
	<path fill="#FFFFFF" d="M15.788,87.497l1.223-6.592c0.317-1.853,0.442-3.949,0.556-4.909L21,75.978
		c-0.042,0.772-0.083,1.547-0.153,2.315l0.075-0.001c0.828-1.521,2.107-2.578,3.695-2.585c0.234,0,0.442-0.003,0.678,0.016
		l-0.772,3.883c-0.139,0-0.327-0.023-0.516-0.023c-2.359,0.014-3.144,1.89-3.526,3.964l-0.704,3.928L15.788,87.497z"/>
	<path fill="#FFFFFF" d="M29.3,82.845c0.008,1.122,0.525,1.821,1.485,1.814c1.631-0.008,2.367-2.605,2.359-4.241
		c-0.008-0.957-0.411-1.751-1.435-1.743C29.982,78.684,29.292,81.444,29.3,82.845 M37.271,80.354
		c0.025,4.459-2.992,7.297-7.039,7.317c-2.936,0.016-5.047-1.743-5.064-4.733c-0.022-4.042,2.812-7.25,7.034-7.272
		C35.286,75.646,37.258,77.641,37.271,80.354"/>
	<path fill="#FFFFFF" d="M39.644,87.364l1.18-6.357l-3.158-9.372l4.274-0.022l0.791,3.521c0.266,1.283,0.431,2.059,0.597,2.94h0.05
		c0.508-0.933,0.946-1.802,1.547-2.951l1.917-3.535l4.765-0.028l-6.791,9.313l-1.177,6.468L39.644,87.364z"/>
	<path fill="#FFFFFF" d="M61.292,75.757l-1.375,7.577c-0.297,1.54-0.479,2.846-0.635,3.923l-3.508,0.021l0.16-1.752h-0.053
		c-1.23,1.5-2.578,2.018-3.906,2.024c-1.987,0.012-2.925-1.168-2.934-3.151c-0.003-0.658,0.086-1.377,0.219-2.203l1.175-6.381
		l3.997-0.022l-1.113,6.056c-0.092,0.469-0.155,1.049-0.153,1.444c0.005,0.544,0.216,1.034,0.868,1.03
		c1.028-0.006,1.935-1.271,2.342-3.447l0.925-5.098L61.292,75.757z"/>
	<path fill="#FFFFFF" d="M62.362,87.242l1.382-7.575c0.295-1.546,0.475-2.847,0.633-3.927l3.503-0.019l-0.178,1.772h0.044
		c1.092-1.454,2.465-2.038,3.913-2.048c2.101-0.011,2.975,1.292,2.984,3.111c0.003,0.511-0.084,1.429-0.175,1.966l-1.251,6.658
		l-3.972,0.022l1.136-6.239c0.069-0.37,0.114-0.817,0.113-1.192c-0.003-0.682-0.219-1.125-0.869-1.123
		c-0.985,0.005-1.958,1.274-2.386,3.663l-0.91,4.908L62.362,87.242z"/>
	<path fill="#FFFFFF" d="M84.376,78.529c-0.208-0.07-0.582-0.115-0.91-0.114c-1.68,0.008-2.909,1.974-2.896,3.847
		c0.006,1.116,0.545,1.699,1.291,1.696c0.838-0.008,1.701-0.874,2.017-2.668L84.376,78.529z M76.954,88.307
		c0.63,0.347,2.131,0.569,2.997,0.564c1.565-0.006,2.729-0.666,3.09-2.629l0.136-0.631H83.13c-0.835,0.935-1.72,1.385-2.977,1.395
		c-2.271,0.009-3.749-1.773-3.783-4.111c-0.047-3.736,2.571-7.488,7.8-7.514c1.751-0.011,3.176,0.236,4.511,0.76l-1.674,9.449
		c-0.364,1.984-0.985,3.974-2.425,5.105c-1.279,1.01-2.984,1.326-4.614,1.332c-1.588,0.01-3.061-0.266-3.883-0.678L76.954,88.307z"
		/>
	<path fill="#FFFFFF" d="M97.681,78.363c-0.253-0.048-0.537-0.072-0.721-0.072c-1.845,0.009-3.07,2.517-3.061,4.199
		c0.006,1.071,0.479,1.633,1.152,1.63c0.724-0.005,1.677-0.731,2.177-3.444L97.681,78.363z M96.888,87.052
		c0.022-0.654,0.064-1.332,0.086-1.987h-0.047c-0.975,1.713-2.392,2.252-3.609,2.259c-2.051,0.012-3.553-1.563-3.565-4.062
		c-0.022-3.828,2.382-7.927,8.29-7.959c1.493-0.008,3.08,0.283,4.111,0.604l-1.206,6.031c-0.229,1.243-0.474,3.603-0.419,5.094
		L96.888,87.052z"/>
	<path fill="#FFFFFF" d="M103.455,83.561c0.702,0.324,2.032,0.807,3.225,0.8c0.792-0.006,1.124-0.317,1.121-0.683
		c-0.001-0.422-0.359-0.749-1.363-1.185c-1.31-0.622-2.58-1.577-2.589-3.095c-0.012-2.513,2.22-4.139,5.399-4.155
		c1.468-0.011,2.567,0.261,3.2,0.588l-0.896,2.782c-0.538-0.228-1.382-0.481-2.429-0.477c-0.774,0.005-1.26,0.234-1.258,0.708
		c0,0.303,0.423,0.65,1.314,1.043c1.238,0.602,2.764,1.432,2.773,3.156c0.014,2.709-2.338,4.192-5.629,4.191
		c-1.541-0.041-3.034-0.38-3.784-0.938L103.455,83.561z"/>
	<polygon fill="#FFFFFF" points="55.553,59.136 59.744,59.111 59.495,60.418 56.844,60.434 56.523,62.112 59.017,62.098 
		58.77,63.391 56.289,63.404 55.762,66.292 54.231,66.302 	"/>
	<path fill="#FFFFFF" d="M62.471,59.097l-0.764,4.121c-0.053,0.247-0.071,0.533-0.069,0.852c0.003,0.569,0.353,1.018,1.042,1.012
		c0.797-0.005,1.329-0.538,1.576-1.863l0.76-4.135l1.529-0.009l-0.75,4.069c-0.406,2.165-1.352,3.212-3.297,3.222
		c-1.476,0.009-2.376-0.738-2.385-2.268c-0.003-0.302,0.036-0.653,0.099-0.994l0.73-3.997L62.471,59.097z"/>
	<path fill="#FFFFFF" d="M66.603,66.234l1.319-7.167l1.796-0.009l0.958,2.723c0.291,0.906,0.488,1.65,0.658,2.435h0.034
		c0.028-0.73,0.121-1.519,0.313-2.573l0.477-2.598l1.421-0.011l-1.307,7.167l-1.583,0.009l-1.011-2.857
		c-0.321-0.961-0.524-1.607-0.716-2.488l-0.03,0.014c-0.081,0.685-0.245,1.709-0.455,2.833l-0.454,2.514L66.603,66.234z"/>
	<path fill="#FFFFFF" d="M75.433,64.948c0.185,0.036,0.405,0.037,0.674,0.036c0.824-0.003,1.557-0.303,2.018-0.849
		c0.489-0.55,0.736-1.296,0.733-2.157c-0.006-1.125-0.636-1.788-1.901-1.782c-0.266,0-0.483,0.01-0.646,0.045L75.433,64.948z
		 M74.98,59.133c0.603-0.106,1.282-0.166,1.971-0.168c1.118-0.005,2.008,0.247,2.618,0.761c0.574,0.477,0.938,1.182,0.957,2.234
		c0.009,1.378-0.57,2.579-1.46,3.3c-0.822,0.658-1.873,0.955-3.42,0.963c-0.861,0.003-1.605-0.06-1.951-0.122L74.98,59.133z"/>
	<path fill="#FFFFFF" d="M84.692,63.105l-0.148-1.54c-0.035-0.391-0.08-0.96-0.111-1.401h-0.023
		c-0.18,0.441-0.375,0.988-0.563,1.404l-0.707,1.548L84.692,63.105z M82.699,64.284l-0.838,1.857l-1.619,0.01l3.439-7.169
		l1.96-0.011l0.882,7.144l-1.604,0.009l-0.159-1.851L82.699,64.284z"/>
	<path fill="#FFFFFF" d="M92.354,65.886c-0.378,0.166-1.028,0.313-1.887,0.319c-1.891,0.009-3.167-1.129-3.176-3.021
		c-0.008-1.601,0.704-2.859,1.784-3.586c0.739-0.525,1.613-0.775,2.629-0.78c0.772-0.005,1.36,0.175,1.558,0.3l-0.403,1.243
		c-0.217-0.106-0.685-0.222-1.3-0.219c-0.616,0.003-1.197,0.193-1.634,0.56c-0.595,0.487-0.977,1.305-0.969,2.302
		c0.006,1.141,0.644,1.902,1.911,1.893c0.495-0.001,0.999-0.094,1.355-0.241L92.354,65.886z"/>
	<polygon fill="#FFFFFF" points="95.989,58.913 94.668,66.078 93.141,66.086 94.462,58.92 	"/>
	<path fill="#FFFFFF" d="M102.33,57.125l-1.392,1.351l-1.294,0.004l0.995-1.347L102.33,57.125z M98.878,60.595
		c-0.575,0.566-0.885,1.684-0.882,2.543c0.005,1.007,0.464,1.757,1.509,1.754c0.447-0.006,0.866-0.208,1.192-0.528
		c0.558-0.566,0.865-1.744,0.861-2.573c-0.004-0.896-0.331-1.748-1.455-1.742C99.625,60.054,99.2,60.255,98.878,60.595
		 M103.178,61.744c0.008,1.297-0.442,2.566-1.255,3.381c-0.664,0.647-1.566,1.03-2.64,1.038c-1.854,0.009-2.906-1.292-2.912-2.964
		c-0.009-1.292,0.467-2.585,1.302-3.394c0.659-0.638,1.569-1.027,2.601-1.033C102.167,58.761,103.167,60.033,103.178,61.744"/>
	<path fill="#FFFFFF" d="M103.56,66.03l1.319-7.164l1.792-0.011l0.961,2.723c0.294,0.907,0.484,1.654,0.666,2.434h0.028
		c0.028-0.729,0.122-1.516,0.311-2.568l0.477-2.603l1.422-0.008l-1.309,7.166l-1.582,0.009l-1.014-2.857
		c-0.317-0.963-0.514-1.605-0.711-2.487l-0.028,0.012c-0.088,0.687-0.252,1.707-0.46,2.836l-0.452,2.512L103.56,66.03z"/>
</g>
<g>
	
		<rect x="195.216" y="52.701" transform="matrix(-1 0.0055 -0.0055 -1 606.4351 162.7257)" fill-rule="evenodd" clip-rule="evenodd" fill="none" width="215.557" height="58.989"/>
	<path fill="#FFFFFF" d="M196.493,70.716c0.846,0.464,2.317,0.8,3.473,0.793c1.906-0.01,2.87-1.016,2.862-2.391
		c-0.008-1.531-0.95-2.276-2.738-3.423c-2.884-1.734-3.99-3.947-4.001-5.853c-0.019-3.375,2.216-6.2,6.591-6.224
		c1.406-0.007,2.721,0.36,3.316,0.732l-0.637,3.535c-0.596-0.372-1.504-0.71-2.66-0.704c-1.75,0.01-2.588,1.077-2.582,2.202
		c0.007,1.25,0.636,1.902,2.893,3.265c2.822,1.672,3.833,3.792,3.846,6.01c0.021,3.844-2.809,6.391-6.902,6.413
		c-1.688,0.009-3.315-0.419-4.036-0.821L196.493,70.716z"/>
	<path fill="#FFFFFF" d="M220.313,67.085c0.035,6.375-3.487,7.957-5.8,7.97c-3.656,0.02-5.859-2.843-5.887-7.812
		c-0.03-5.5,2.832-7.984,5.862-8C218.114,59.223,220.287,62.242,220.313,67.085z M212.688,67.127
		c0.015,2.625,0.433,4.81,1.901,4.802c1.344-0.008,1.674-2.572,1.661-4.822c-0.011-2.094-0.37-4.749-1.776-4.741
		C212.975,62.375,212.677,65.034,212.688,67.127z"/>
	<path fill="#FFFFFF" d="M231.132,74.464c-0.405,0.189-1.435,0.445-2.591,0.452c-3.875,0.021-6.421-2.652-6.448-7.621
		c-0.026-4.719,2.737-8.015,6.956-8.038c0.969-0.005,1.845,0.209,2.252,0.394l-0.513,3.221c-0.345-0.123-0.846-0.277-1.533-0.273
		c-1.969,0.011-3.115,1.892-3.1,4.548c0.015,2.75,1.181,4.431,3.087,4.421c0.594-0.003,1.093-0.1,1.53-0.321L231.132,74.464z"/>
	<path fill="#FFFFFF" d="M236.744,55.371c0.038,1.312-0.894,2.224-2.144,2.23c-1.125,0.006-2.068-0.895-2.043-2.208
		c-0.039-1.375,0.956-2.255,2.081-2.262C235.825,53.125,236.736,53.996,236.744,55.371z M232.756,74.705l-0.084-15.281l4.094-0.022
		l0.084,15.281L232.756,74.705z"/>
	<path fill="#FFFFFF" d="M250.015,71.11c0.007,1.219,0.076,2.469,0.238,3.499l-3.656,0.02l-0.227-1.499l-0.093,0
		c-0.806,1.161-2.021,1.761-3.365,1.769c-2.312,0.013-4.042-1.915-4.057-4.603c-0.022-4.031,3.5-5.676,6.969-5.726l-0.002-0.344
		c-0.007-1.219-0.699-2.09-2.168-2.082c-1.219,0.007-2.186,0.356-3.12,0.923l-0.765-2.777c0.873-0.473,2.619-1.17,4.775-1.182
		c4.656-0.025,5.424,3.22,5.441,6.345L250.015,71.11z M245.963,67.195c-1.344,0.039-3.247,0.518-3.235,2.643
		c0.008,1.5,0.855,2.058,1.48,2.055c0.688-0.004,1.404-0.414,1.68-1.322c0.062-0.219,0.091-0.438,0.09-0.719L245.963,67.195z"/>
	<path fill="#FFFFFF" d="M252.787,52.97l4.094-0.022L257,74.572l-4.094,0.022L252.787,52.97z"/>
	<path fill="#FFFFFF" d="M259.846,63.868c-0.01-1.656-0.08-3.125-0.15-4.592l3.562-0.02l0.229,1.748h0.062
		c0.774-1.129,2.051-2.042,3.613-2.051c1.719-0.01,2.817,0.766,3.355,2.075h0.062c0.372-0.596,0.963-1.162,1.555-1.54
		c0.622-0.378,1.34-0.57,2.121-0.574c2.75-0.015,3.981,2.165,4.001,5.821l0.054,9.719l-4.094,0.022l-0.05-9.031
		c-0.01-1.719-0.204-3.124-1.423-3.117c-0.719,0.004-1.279,0.507-1.524,1.383c-0.092,0.251-0.121,0.657-0.119,1.095l0.054,9.688
		l-4.094,0.022l-0.053-9.594c-0.006-1.125-0.107-2.562-1.389-2.555c-0.625,0.003-1.248,0.444-1.524,1.384
		c-0.092,0.282-0.152,0.719-0.149,1.157l0.053,9.625l-4.094,0.022L259.846,63.868z"/>
	<path fill="#FFFFFF" d="M284.583,68.233c0.044,2.375,1.455,3.242,3.236,3.232c1.156-0.006,2.155-0.262,2.904-0.516l0.547,2.935
		c-1.029,0.412-2.621,0.702-4.152,0.71c-4.188,0.023-6.484-2.714-6.51-7.496c-0.028-5.156,2.642-8.233,6.079-8.252
		c3.281-0.018,5.202,2.565,5.228,7.221c0.006,1.094-0.053,1.688-0.113,2.125L284.583,68.233z M288.192,65.338
		c-0.011-1.969-0.52-3.498-1.738-3.491c-1.312,0.007-1.864,1.979-1.887,3.511L288.192,65.338z"/>
	<path fill="#FFFFFF" d="M294.211,63.68c-0.009-1.656-0.079-3.125-0.15-4.593l3.531-0.019l0.229,1.748h0.062
		c0.775-1.192,2.083-2.011,3.677-2.02c2.906-0.016,4.075,2.29,4.094,5.696l0.054,9.812l-4.094,0.022l-0.052-9.562
		c-0.008-1.281-0.327-2.529-1.515-2.523c-0.688,0.004-1.247,0.476-1.523,1.384c-0.123,0.313-0.214,0.813-0.211,1.407l0.051,9.312
		l-4.094,0.022L294.211,63.68z"/>
	<path fill="#FFFFFF" d="M313.286,55.013l0.021,3.969l3-0.017l0.017,2.906l-3,0.017l0.038,6.969c0.01,1.781,0.762,2.215,1.543,2.21
		c0.406-0.002,0.719-0.035,1.094-0.1l0.049,3.187c-0.562,0.16-1.437,0.289-2.499,0.295c-1.188,0.007-2.22-0.269-2.974-0.952
		c-0.817-0.808-1.292-1.962-1.306-4.368l-0.039-7.219l-1.812,0.01l-0.017-2.906l1.812-0.01l-0.015-2.688L313.286,55.013z"/>
	<path fill="#FFFFFF" d="M321.512,68.03c0.044,2.375,1.455,3.242,3.236,3.232c1.156-0.006,2.154-0.262,2.902-0.516l0.548,2.935
		c-1.028,0.412-2.621,0.702-4.152,0.71c-4.188,0.023-6.483-2.714-6.51-7.496c-0.028-5.156,2.643-8.233,6.08-8.252
		c3.281-0.018,5.2,2.565,5.227,7.221c0.006,1.094-0.054,1.688-0.113,2.125L321.512,68.03z M325.12,65.135
		c-0.011-1.969-0.519-3.498-1.737-3.491c-1.312,0.007-1.864,1.979-1.888,3.51L325.12,65.135z"/>
</g>
<g>
</g>
<g>
</g>
<g>
</g>
<g>
</g>
<g>
</g>
<g>
</g>
</svg>
