<?xml version="1.0" encoding="utf-8"?>
<!-- Generator: Adobe Illustrator 20.0.0, SVG Export Plug-In . SVG Version: 6.00 Build 0)  -->
<svg version="1.1" id="Capa_1" xmlns="http://www.w3.org/2000/svg" xmlns:xlink="http://www.w3.org/1999/xlink" x="0px" y="0px"
	 viewBox="0 0 54 51.3" style="enable-background:new 0 0 54 51.3;" xml:space="preserve">
<style type="text/css">
	.st0{fill:#FFFFFF;}
	.st1{fill:none;stroke:#FFFFFF;stroke-width:1.15;stroke-linecap:square;stroke-linejoin:bevel;}
	.st2{fill:none;stroke:#FFFFFF;stroke-width:1.15;stroke-miterlimit:10;}
	.st3{fill:none;stroke:#585757;stroke-width:1.14;stroke-miterlimit:10;}
	.st4{fill:#585757;}
</style>
<title>logo</title>
<path class="st0" d="M38.4,16.9l-0.5-1.1l0.4-0.3c1.7-1.3,3.5-2.5,5.4-3.5c3.8-1.7,6.5-1.5,7.7-0.7l1.1,0.6l-0.6,1l-1.1-0.6
	c-0.2-0.1-2.2-1.3-6.7,0.8c-1.8,1.1-3.5,2.2-5.2,3.4L38.4,16.9z"/>
<path class="st1" d="M35.1,17.3c-0.1-1.6,1.9-3,2.8-2.4"/>
<path class="st2" d="M9,2.1c5.6,6,8.2,9.2,16.2,12.8c2.3,1,2.3,4.4,1.5,6.5c3.2-0.6,6.2-1.8,9-3.4"/>
<path class="st2" d="M0.7,28.1c0.6-2.7,2.2-5.7,8.2-6.9c1.2-0.2,2.5-0.2,3.7-0.2"/>
<path class="st3" d="M51.3,11c-0.9-0.5-3.2-1.4-7.1,0.4c-1.8,0.9-3.5,2-5.1,3.2l-0.9,0.6c-0.2-0.3-0.4-0.6-0.7-0.9
	c-0.9-0.7-2.7,0.2-2.6,1.8c0.1,1.3,0.9,2.3,2.8,2.7c-1.9-0.4-2.6-1.3-2.7-1.5c-2.4,1.5-5.1,2.5-7.9,3.1c0.8-2.2,0.7-5.5-1.6-6.5
	C17.6,10.2,15,7.1,9.4,1c-2,5,2.9,9.3,2.9,10.4c0,0-0.1,0-0.2,0c-0.6-0.2-2.6-1-3.7-1.6c-1.1,3.7,5.2,6.8,5.5,7.8
	c-1.2,0.1-2.4-0.1-3.6-0.4c-0.4,1.6,3,5.5,8.1,5.8c-5-0.2-6-2.7-7-3.1c-0.8,0-1.6,0.1-2.3,0.2c-10.4,2.1-8.6,10.1-8.3,11.2
	C0.9,31.7,1.4,32,2,32.2c1.6,2.1,4.3,4.2,3.5,7.9c-0.1,0.7,0.7,0.8,2.1,5.9h2.6l-0.1-0.2c0,0-2-8.8,0.5-12.3c0.1,0,0.1,0,0.2,0
	c2.5,1.2,10.7,2,14.6,0.6c0.1,0,0.3-0.1,0.3,0.3c-0.1,0.7-0.2,11.4-0.2,11.4h2.5c-0.1-0.9-0.1-1.9,0.1-2.8c0.7-3.3,2.2-6.4,4.4-9
	c2-1.5,3.7-3.2,5.3-5.1c1.3-1.5,4.4-7.1,5.7-7.4c4-0.9,4.4-6.3,5.5-7.7c0.7-1.2,2.2,0.8,3-0.9C52.4,11.7,52.4,11.7,51.3,11z"/>
<path class="st4" d="M43.6,14.7c0.4-0.4,1.1-0.4,1.5,0.1c-0.7,0.3-1.3,0.8-1.7,1.4C43.1,15.7,43.1,15.1,43.6,14.7
	C43.6,14.7,43.6,14.7,43.6,14.7z"/>
</svg>
