<svg id="Capa_1" data-name="Capa 1" xmlns="http://www.w3.org/2000/svg" viewBox="0 0 124.5 51.32"><defs><style>.cls-1{fill:#fff;}.cls-2,.cls-3,.cls-4{fill:none;}.cls-2,.cls-3{stroke:#fff;stroke-width:1.15px;}.cls-2{stroke-linecap:square;stroke-linejoin:bevel;}.cls-2,.cls-3,.cls-4,.cls-5{fill-rule:evenodd;}.cls-3,.cls-4{stroke-miterlimit:10;}.cls-4{stroke:#585757;stroke-width:1.14px;}.cls-5,.cls-6{fill:#585757;}.cls-6{font-size:21.29px;font-family:Asap-Medium, Asap;}</style></defs><title>logo</title><path class="cls-1" d="M269.57,412.25l-.46-1.13.41-.3a60.44,60.44,0,0,1,5.41-3.53c3.78-1.73,6.48-1.5,7.73-.71l1.06.63-.59,1-1.07-.64c-.22-.14-2.22-1.26-6.66.77a61.92,61.92,0,0,0-5.21,3.42Z" transform="translate(-231.21 -395.33)"/><path class="cls-2" d="M266.3,412.65c-.1-1.56,1.86-3,2.84-2.41" transform="translate(-231.21 -395.33)"/><path class="cls-3" d="M240.22,397.46c5.63,6,8.21,9.21,16.25,12.84,2.26,1,2.33,4.36,1.49,6.52a29.92,29.92,0,0,0,9-3.38" transform="translate(-231.21 -395.33)"/><path class="cls-3" d="M231.87,423.44c.55-2.68,2.19-5.71,8.16-6.89a32.49,32.49,0,0,1,3.74-.25" transform="translate(-231.21 -395.33)"/><path class="cls-4" d="M282.52,406.33c-.87-.55-3.17-1.42-7.12.4a34.17,34.17,0,0,0-5.1,3.22l-.85.6a2.82,2.82,0,0,0-.72-.86c-.91-.68-2.71.25-2.61,1.8.09,1.34.94,2.27,2.84,2.66-1.91-.4-2.6-1.26-2.66-1.51a23.5,23.5,0,0,1-7.94,3.07c.84-2.16.68-5.48-1.57-6.5-8-3.63-10.59-6.81-16.19-12.84-2,5,2.9,9.3,2.92,10.41,0,0-.09,0-.17,0-.58-.23-2.56-1-3.66-1.57-1.06,3.71,5.24,6.84,5.53,7.76a10.56,10.56,0,0,1-3.62-.43c-.38,1.59,3,5.55,8.1,5.79-5-.23-6-2.74-7-3.12a12.12,12.12,0,0,0-2.32.25c-10.38,2.07-8.65,10.08-8.33,11.23.1.37.53.62,1.15.81,1.65,2.08,4.32,4.21,3.51,7.89-.15.69.66.83,2.11,5.87h2.57l-.08-.25s-2-8.81.46-12.31a.31.31,0,0,1,.16,0c2.53,1.17,10.73,2,14.58.6.13,0,.31-.07.26.27-.09.67-.2,11.35-.2,11.35h2.52a9.1,9.1,0,0,1,.11-2.8,21.73,21.73,0,0,1,4.35-9,32.2,32.2,0,0,0,5.31-5.14c1.34-1.46,4.38-7.14,5.74-7.37,4.05-.9,4.36-6.27,5.49-7.75.69-1.23,2.19.78,3-.91C283.58,407,283.65,407.05,282.52,406.33Z" transform="translate(-231.21 -395.33)"/><path class="cls-5" d="M274.8,410a1.09,1.09,0,0,1,1.53.09,3.92,3.92,0,0,0-1.67,1.44A1.08,1.08,0,0,1,274.8,410Z" transform="translate(-231.21 -395.33)"/><text class="cls-6" transform="translate(42.83 46.21)">TAPIRUS</text></svg>