<?xml version="1.0" encoding="utf-8"?>
<!-- Generator: Adobe Illustrator 16.0.0, SVG Export Plug-In . SVG Version: 6.00 Build 0)  -->
<!DOCTYPE svg PUBLIC "-//W3C//DTD SVG 1.1//EN" "http://www.w3.org/Graphics/SVG/1.1/DTD/svg11.dtd">
<svg version="1.1" id="Capa_1" xmlns="http://www.w3.org/2000/svg" xmlns:xlink="http://www.w3.org/1999/xlink" x="0px" y="0px"
	 width="317.406px" height="389.908px" viewBox="0 0 317.406 389.908" enable-background="new 0 0 317.406 389.908"
	 xml:space="preserve">
<g>
	<g>
		<g>
			<path fill="#2E5561" d="M159.4,63.236c0,33.252-26.959,60.214-60.214,60.214c-33.254,0-60.213-26.962-60.213-60.214
				c0-33.254,26.959-60.213,60.213-60.213C132.441,3.023,159.4,29.982,159.4,63.236z"/>
		</g>
	</g>
</g>
<g>
	<g>
		<path fill="#FFD152" d="M143.505,63.236c0-24.476-19.842-44.319-44.318-44.319S54.869,38.76,54.869,63.236
			c0,18.947,11.893,35.115,28.621,41.453v5.14h31.393v-5.14C131.612,98.351,143.505,82.183,143.505,63.236z"/>
	</g>
</g>
<g>
	<g>
		<g>
			<path fill="#E2B74D" d="M143.505,63.236c0-24.476-19.842-44.319-44.318-44.319v112.479h3.115l3.927-3.063h8.654
				c1.705,0,3.086-1.381,3.086-3.084s-1.381-3.084-3.086-3.084c1.705,0,3.086-1.38,3.086-3.084c0-1.702-1.381-3.082-3.086-3.082
				c1.705,0,3.086-1.382,3.086-3.084c0-1.703-1.381-3.085-3.086-3.085v-5.14C131.612,98.351,143.505,82.183,143.505,63.236z"/>
		</g>
	</g>
</g>
<g>
	<g>
		<g>
			<path fill="#BB9C3E" d="M107.071,67.75c-0.008-0.041-0.023-0.08-0.034-0.119c-0.016-0.048-0.026-0.095-0.044-0.143
				c-0.02-0.048-0.047-0.091-0.07-0.136c-0.02-0.034-0.036-0.072-0.06-0.104c-0.103-0.154-0.235-0.287-0.389-0.389
				c-0.03-0.02-0.063-0.032-0.096-0.052c-0.048-0.026-0.093-0.057-0.146-0.077c-0.043-0.019-0.086-0.026-0.131-0.042
				c-0.043-0.011-0.086-0.03-0.131-0.039c-0.088-0.017-0.178-0.025-0.265-0.025c-0.004,0-0.007,0-0.007,0h-0.001
				c-0.094,0-0.185,0.009-0.276,0.025c-0.041,0.009-0.075,0.023-0.114,0.036c-0.049,0.014-0.098,0.024-0.146,0.045
				c-0.046,0.02-0.087,0.045-0.129,0.068c-0.038,0.021-0.077,0.036-0.113,0.061c-0.077,0.052-0.148,0.11-0.214,0.176l-2.263,2.265
				l-2.267-2.267c-0.547-0.549-1.433-0.549-1.981,0l-2.265,2.267l-2.263-2.265c-0.064-0.065-0.139-0.124-0.215-0.176
				c-0.033-0.021-0.067-0.036-0.102-0.054c-0.047-0.024-0.09-0.055-0.141-0.075c-0.045-0.019-0.091-0.028-0.138-0.043
				c-0.04-0.01-0.082-0.029-0.123-0.038c-0.182-0.034-0.366-0.034-0.55,0c-0.042,0.009-0.082,0.023-0.123,0.038
				c-0.047,0.015-0.094,0.024-0.14,0.043c-0.046,0.021-0.094,0.047-0.14,0.073c-0.031,0.02-0.067,0.034-0.1,0.056
				c-0.153,0.102-0.286,0.234-0.389,0.389c-0.021,0.032-0.039,0.07-0.058,0.107c-0.024,0.045-0.052,0.085-0.071,0.133
				s-0.031,0.097-0.044,0.143c-0.013,0.039-0.028,0.078-0.035,0.119c-0.019,0.091-0.028,0.184-0.028,0.273l0,0v42.256
				c0,0.775,0.627,1.401,1.402,1.401s1.4-0.626,1.4-1.401v-38.87l0.863,0.862c0.264,0.266,0.618,0.412,0.991,0.412
				s0.728-0.146,0.991-0.412l2.265-2.264l2.266,2.264c0.263,0.266,0.619,0.412,0.991,0.412c0.37,0,0.729-0.146,0.99-0.412
				l0.862-0.862v38.87c0,0.775,0.628,1.401,1.403,1.401c0.772,0,1.401-0.626,1.401-1.401V68.023l0,0
				C107.101,67.933,107.089,67.84,107.071,67.75z"/>
		</g>
	</g>
</g>
<g>
	<g>
		<g>
			<g>
				<path fill="#DCDCDC" d="M114.883,115.998H83.49c-1.704,0-3.084-1.382-3.084-3.084c0-1.703,1.38-3.085,3.084-3.085h31.393
					c1.705,0,3.086,1.382,3.086,3.085C117.969,114.616,116.588,115.998,114.883,115.998z"/>
			</g>
		</g>
	</g>
</g>
<g>
	<g>
		<g>
			<g>
				<path fill="#DCDCDC" d="M114.883,122.164H83.49c-1.704,0-3.084-1.38-3.084-3.084c0-1.702,1.38-3.082,3.084-3.082h31.393
					c1.705,0,3.086,1.38,3.086,3.082C117.969,120.784,116.588,122.164,114.883,122.164z"/>
			</g>
		</g>
	</g>
</g>
<g>
	<g>
		<g>
			<g>
				<path fill="#DCDCDC" d="M114.883,128.332H83.49c-1.704,0-3.084-1.381-3.084-3.084s1.38-3.084,3.084-3.084h31.393
					c1.705,0,3.086,1.381,3.086,3.084S116.588,128.332,114.883,128.332z"/>
			</g>
		</g>
	</g>
</g>
<g>
	<g>
		<g>
			<g>
				<path fill="#DCDCDC" d="M83.49,115.998h31.393c1.705,0,3.086-1.382,3.086-3.084H80.406
					C80.406,114.616,81.786,115.998,83.49,115.998z"/>
			</g>
		</g>
	</g>
</g>
<g>
	<g>
		<g>
			<g>
				<path fill="#DCDCDC" d="M83.49,122.164h31.393c1.705,0,3.086-1.38,3.086-3.084H80.406
					C80.406,120.784,81.786,122.164,83.49,122.164z"/>
			</g>
		</g>
	</g>
</g>
<g>
	<g>
		<g>
			<polygon fill="#959595" points="102.302,131.395 96.072,131.395 92.145,128.332 106.229,128.332 			"/>
		</g>
	</g>
</g>
<g>
	<g>
		<g>
			<g>
				<path fill="#DCDCDC" d="M83.49,128.332h31.393c1.705,0,3.086-1.381,3.086-3.084H80.406
					C80.406,126.951,81.786,128.332,83.49,128.332z"/>
			</g>
		</g>
	</g>
</g>
<polygon fill-rule="evenodd" clip-rule="evenodd" fill="#15272E" points="30.52,218.342 182.406,389.908 317.406,389.907 
	317.406,218.055 "/>
<g>
	<g>
		<path fill="#DEA405" d="M132.396,168.33c5.887-7.311,9.416-16.592,9.416-26.688c0-9.935-3.487-19.587-9.824-27.22
			c-2.868-3.453-7.998-4.15-11.483-1.324c-3.528,2.859-4.006,8.044-1.093,11.498c4.018,4.758,6.229,10.812,6.229,17.046
			c0,14.587-11.868,26.454-26.454,26.454c-14.587,0-26.453-11.867-26.453-26.454c0-6.233,2.21-12.288,6.227-17.046
			c2.882-3.415,2.449-8.515-0.963-11.396c-3.413-2.88-8.515-2.447-11.395,0.963c-6.473,7.673-10.041,17.432-10.041,27.479
			c0,10.097,3.528,19.378,9.415,26.688H10.08c-4.384,0-8.117,3.41-8.271,7.794c-0.165,4.597,3.515,8.376,8.078,8.376h55.146
			c0.809,0,1.465,0.658,1.465,1.469v0.029c0,0.811-0.656,1.468-1.465,1.468H20.592c-4.383,0-8.117,3.409-8.272,7.79
			c-0.163,4.6,3.517,8.381,8.08,8.381h44.634c0.809,0,1.465,0.657,1.465,1.468v0.028c0,0.811-0.656,1.469-1.465,1.469H37.842
			c-4.386,0-8.119,3.409-8.272,7.789c-0.165,4.6,3.515,8.381,8.077,8.381h28.852h21.01h58.12V168.33H132.396z"/>
	</g>
	<rect x="145.628" y="168.33" fill="#12292D" width="6.896" height="54.77"/>
</g>
<g>
	<g>
		<rect x="152.514" y="165.347" fill="#EEEEEE" width="164.893" height="60.375"/>
	</g>
</g>
<g>
	<g>
		<polygon fill="#D8D8D8" points="169.229,195.326 152.528,195.326 152.528,223.106 152.514,225.722 317.406,225.822 
			317.406,195.326 		"/>
	</g>
</g>
<g>
</g>
<g>
</g>
<g>
</g>
<g>
</g>
<g>
</g>
<g>
</g>
</svg>
