<?xml version="1.0" encoding="utf-8"?>
<!-- Generator: Adobe Illustrator 16.0.0, SVG Export Plug-In . SVG Version: 6.00 Build 0)  -->
<!DOCTYPE svg PUBLIC "-//W3C//DTD SVG 1.1//EN" "http://www.w3.org/Graphics/SVG/1.1/DTD/svg11.dtd">
<svg version="1.1" id="Capa_1" xmlns="http://www.w3.org/2000/svg" xmlns:xlink="http://www.w3.org/1999/xlink" x="0px" y="0px"
	 width="39.333px" height="35.334px" viewBox="0 0 39.333 35.334" enable-background="new 0 0 39.333 35.334" xml:space="preserve">
<g>
	<path fill="#D3E6EF" d="M7.949,34.649l-2.198-0.005l-0.087-0.302c-0.604-2.106-1.007-2.973-1.225-3.438
		c-0.171-0.367-0.273-0.589-0.197-0.939c0.445-2.023-0.702-3.343-1.812-4.618c-0.206-0.237-0.408-0.47-0.595-0.701
		c-0.305-0.101-0.859-0.332-0.997-0.846c-0.133-0.48-0.725-3.007,0.69-5.302c1.068-1.731,2.995-2.887,5.728-3.432
		c0.011-0.002,0.523-0.096,1.007-0.157c-0.404-0.615-0.575-1.207-0.465-1.667l0.103-0.428l0.422,0.124
		c0.475,0.141,1.013,0.229,1.471,0.277c-0.067-0.053-0.135-0.105-0.199-0.155c-1.431-1.113-3.824-2.976-3.188-5.199L6.548,7.37
		l0.454,0.235C7.471,7.849,8.163,8.142,8.74,8.376C8.708,8.328,8.676,8.28,8.644,8.233C7.698,6.837,5.937,4.236,7.087,1.355
		l0.245-0.613l1.32,1.424c3.536,3.827,5.483,5.936,10.842,8.361c1.572,0.708,2.006,2.767,1.591,4.554
		c2.269-0.573,2.799-0.858,4.258-1.641l0.492-0.263c-0.055-0.182-0.089-0.376-0.103-0.583c-0.031-0.495,0.141-0.969,0.484-1.335
		c0.567-0.602,1.526-0.768,2.095-0.345c0.141,0.106,0.272,0.242,0.383,0.375c0.076-0.055,0.169-0.119,0.278-0.195
		c1.823-1.304,2.889-1.975,3.796-2.391c1.211-0.558,2.346-0.841,3.374-0.841c1.149,0,1.89,0.36,2.229,0.574
		c0.84,0.533,1.069,0.732,0.655,1.587l-0.062,0.129c-0.241,0.505-0.608,0.761-1.092,0.761c-0.219,0-0.427-0.053-0.611-0.1
		c-0.139-0.035-0.27-0.068-0.363-0.068c-0.057,0-0.085,0-0.139,0.096c-0.231,0.31-0.419,0.858-0.617,1.439
		c-0.564,1.651-1.338,3.912-3.673,4.433c-0.483,0.086-1.809,2.107-2.521,3.194c-0.585,0.893-1.09,1.663-1.465,2.07
		c-1.38,1.691-2.225,2.386-3.042,3.056c-0.28,0.23-0.562,0.461-0.869,0.735c-1.412,1.842-2.251,3.292-3.061,6.4
		c-0.201,0.843-0.076,1.878-0.074,1.889l0.059,0.468l-2.742,0.008l0.004-0.423c0.007-0.716,0.064-6.402,0.127-7.98
		c-1.191,0.364-2.726,0.445-3.842,0.445c-2.442,0-5.159-0.389-6.519-0.919c-1.444,2.533-0.118,8.357-0.104,8.418l0.054,0.23
		l-0.292,0.282L7.949,34.649z M6.381,33.811l1.129,0.002c-0.305-1.522-1.124-6.428,0.418-8.778v-0.289l0.451-0.002
		c0.098,0,0.187,0.019,0.265,0.057c0.997,0.461,3.667,0.94,6.4,0.94c1.662,0,3.026-0.178,3.946-0.514l0.236-0.047
		c0.151,0,0.289,0.061,0.386,0.172c0.111,0.129,0.153,0.303,0.124,0.518c-0.046,0.342-0.105,4.716-0.138,7.827l0.973-0.003
		c-0.021-0.436-0.018-1.108,0.131-1.727c0.842-3.236,1.759-4.816,3.262-6.765c0.369-0.339,0.659-0.577,0.948-0.813
		c0.821-0.675,1.598-1.312,2.94-2.957c0.345-0.376,0.855-1.156,1.397-1.982c1.394-2.126,2.295-3.427,3.06-3.556
		c1.856-0.414,2.514-2.338,3.042-3.883c0.23-0.676,0.43-1.259,0.711-1.627c0.159-0.293,0.459-0.474,0.836-0.474
		c0.198,0,0.387,0.048,0.569,0.094c0.149,0.038,0.291,0.074,0.405,0.074c0.085,0,0.201,0,0.338-0.285l0.064-0.134
		c0.036-0.075,0.076-0.157,0.102-0.217c-0.085-0.065-0.245-0.167-0.401-0.266C37.662,8.979,37.081,8.7,36.143,8.7
		c-0.906,0-1.924,0.257-3.025,0.764c-0.855,0.393-1.882,1.041-3.662,2.313c-0.475,0.331-0.611,0.432-0.617,0.436l-0.413,0.306
		l-0.215-0.467c-0.029-0.062-0.204-0.32-0.4-0.468c-0.09-0.067-0.202-0.081-0.28-0.081c-0.242,0-0.512,0.126-0.703,0.329
		c-0.13,0.139-0.28,0.374-0.26,0.709c0.035,0.522,0.254,1.254,1.745,1.565c0.001,0,0.002,0.001,0.003,0.001l0,0l-0.17,0.818
		c-1.021-0.212-1.663-0.609-1.997-0.967l-0.409,0.218c-1.63,0.874-2.179,1.169-5.17,1.893l-0.776,0.188l0.288-0.744
		c0.524-1.358,0.494-3.582-0.931-4.224c-5.513-2.495-7.62-4.776-11.111-8.556l-0.381-0.41C7.148,4.534,8.499,6.528,9.336,7.765
		c0.429,0.633,0.688,1.015,0.692,1.358l0.006,0.424L9.561,9.559c-0.079,0-0.159-0.016-0.229-0.044L9.066,9.408
		C8.592,9.219,7.8,8.903,7.142,8.602C7.15,10.1,8.973,11.518,10.108,12.4c0.726,0.565,1.05,0.827,1.146,1.128l0.064,0.203
		l-0.127,0.177c-0.144,0.193-0.373,0.193-0.597,0.193c-0.356,0-1.133-0.049-1.923-0.214c0.112,0.312,0.354,0.713,0.735,1.13
		c0.162,0.107,0.318,0.257,0.496,0.427c0.119,0.114,0.252,0.242,0.407,0.375c0.754,0.554,2.055,1.255,3.83,1.34
		c0.003,0,0.005,0,0.008,0l-0.039,0.836c-2.42-0.114-3.638-0.935-4.344-1.542c-0.303-0.221-0.6-0.479-0.865-0.754c0,0,0,0-0.001,0
		c-0.402,0-1.326,0.158-1.484,0.188c-2.491,0.497-4.233,1.522-5.175,3.049c-1.233,2.001-0.713,4.22-0.596,4.644
		c0.014,0.054,0.147,0.182,0.556,0.304l0.127,0.037l0.082,0.104c0.201,0.255,0.424,0.511,0.651,0.772
		c1.128,1.297,2.532,2.912,1.997,5.346c-0.014,0.062-0.017,0.074,0.139,0.407C5.414,31.015,5.807,31.857,6.381,33.811z"/>
	<path fill-rule="evenodd" clip-rule="evenodd" fill="#D3E6EF" d="M32.502,11.471c0.338-0.292,0.839-0.263,1.124,0.063
		c0,0-0.352,0.145-0.693,0.442c-0.343,0.298-0.529,0.606-0.529,0.606C32.121,12.258,32.162,11.759,32.502,11.471z"/>
</g>
<g>
</g>
<g>
</g>
<g>
</g>
<g>
</g>
<g>
</g>
<g>
</g>
</svg>
