<?xml version="1.0" encoding="utf-8"?>
<!-- Generator: Adobe Illustrator 16.0.0, SVG Export Plug-In . SVG Version: 6.00 Build 0)  -->
<!DOCTYPE svg PUBLIC "-//W3C//DTD SVG 1.1//EN" "http://www.w3.org/Graphics/SVG/1.1/DTD/svg11.dtd">
<svg version="1.1" id="Capa_1" xmlns="http://www.w3.org/2000/svg" xmlns:xlink="http://www.w3.org/1999/xlink" x="0px" y="0px"
	 width="248.987px" height="253.487px" viewBox="0 0 248.987 253.487" enable-background="new 0 0 248.987 253.487"
	 xml:space="preserve">
<g>
	<path fill="#FFFFFF" d="M152.321,4.144c-51.558,0-93.354,41.758-93.354,93.27c0,51.511,41.796,93.269,93.354,93.269
		c0.112,0,0.226-0.002,0.339-0.004V4.149C152.547,4.149,152.434,4.144,152.321,4.144z"/>
	<path fill="#E6E7E8" d="M245.676,97.414c0-51.397-41.613-93.083-93.016-93.265v186.529
		C204.062,190.495,245.676,148.811,245.676,97.414z"/>
	<path fill="#08A3BC" d="M239.561,63.588l-4.87,0.082l-2.444-2.681l-0.469-4.31l-2.499,1.365l-1.345,5.268l-3.609-3.842
		l-0.148-3.633l-3.487-3.004l-1.288-1.277h-4.047l1.281,3.604l4.867,2.715l0.846,0.896l-1.052,0.526l0.04,2.854l-2.368,0.99
		l-2.028-0.444l-1.261-1.793l3.289,0.177l0.889-1.197l-7.296-4.923l-0.555-2.096l-2.964,2.68l-3.007-0.618l-4.574,5.946
		l-0.897,2.327l-2.923,0.266l-4.329,0.027l-2.587-1.209l-0.762-5.139l0.93-2.451l4.402-0.963l4.805,0.963l0.584-2.656l-2.04-0.482
		l0.698-4.139l4.832-0.755l3.379-4.774l3.492-0.586l3.15,0.467h1.158l-0.635-4.483l-3.832,1.546l-1.346-3.351l-2.221-0.31
		l-0.416-2.297l1.815-1.974l4.309-1.689l1.111-1.982C197.717,12.761,176.201,3.94,152.66,3.888v16.83l1.781,0.79v3.338l2.801,0.697
		l-1.4,2.642h-3.182v12.173l1.932,1.178l-0.15,3.268l-1.781,0.606v2.272l2.713,1.236l-0.079,2.249l-1.194,0.102
		c-0.003-0.038-0.008-0.062-0.008-0.062l-1.432-0.44v62.64l2.328,0.887l8.229,0.08l2.412,3.953l3.646,1.168l-0.703,3.266
		l-3.999,5.082l-1.166,11.242l-3.606,2.855l-5.359-0.16l-1.781,3.094v0.027l1.321,5.811l-1.321,1.689v38.359
		c29.125-0.064,55.154-13.529,72.258-34.535h-3.082v-6.213l-3.562-4.803v-7.471l-2.726-2.709l-0.234-3.109l3.456-6.602l-6.559-11.57
		l0.779-7.848l-5.904-0.615l-2.17-2.174h-3.964l-2.015,1.864h-6.99l-0.234,0.618h-3.883l-8.928-10.167l0.072-7.922l1.476-0.541
		l0.547-3.031h-2.095l-0.856-3.182l10.331-7.451v-5.282l5.054-2.807l2.044,0.204h4.16l3.254-1.745l10.485-0.818v5.359l8.272,2.097
		l1.629,1.164h1.516v-2.915l4.773-0.465l4.547,3.38h7.449l0.523-0.479C241.346,68.48,240.502,66.011,239.561,63.588z
		 M195.438,36.995l0.857-1.318l3.066-0.621l0.774,3.73l1.634,2.637l1.084,1.246l1.979,0.771l-1.86,2.219l-3.611,0.346h-2.717
		l0.305-3.221l2.258-0.468l-0.19-1.514l-2.103-1.321l-1.477-1.008V36.995z M190.392,42.821l1.868-2.988l2.516-0.584l1.793,0.778
		l-0.162,2.017l-3.84,2.719h-2.175V42.821z"/>
	<polygon fill="#004346" points="152.655,144.881 152.66,144.901 152.66,144.874 	"/>
	<path fill="#32B8C9" d="M148.152,158.165l-1.859,3.418l-5.555,2.67l-3.653,0.555l-0.15,1.549l2.562,0.736l-0.309,1.666
		l-2.297,2.213l1.396,1.754l2.762,0.078l-0.155,2.133l-0.735,2.096l-0.236,1.707l4.086,3.441l-0.544,1.787l-5.558-0.105l-5.534-4.83
		l-4.313-7.576l0.604-7.312l-3.261-4.35l1.319-7.373l-1.94-0.547v-15.994c0,0-5.434-4.119-5.743-4.119s-2.872-0.695-2.872-0.695
		l-0.547-3.027l-7.062-8.852l0.699-3.186l0.229-5.201l4.887-3.418l-0.697-5.824l-7.141-0.537l-5.59-6.371l-3.959-1.084l-2.559-0.469
		l0.305-2.328l-3.261-0.466v1.32l-8.153-2.019l-3.28-5.021l1.337-2.434l-5.166-7.535l-0.889-5.51h-2.095l0.698,5.354l3.57,5.512
		l-0.389,2.179l-3.027-0.466l-3.725-6.353v-7.39l-3.88-1.868v-5.316c-4.8,11.236-7.461,23.596-7.461,36.566
		c0,51.522,41.917,93.44,93.438,93.44c0.071,0,0.141-0.004,0.211-0.004v-38.359L148.152,158.165z"/>
	<path fill="#32B8C9" d="M148.898,49.608l-0.218-1.665h-0.007l1.515-1.044v-1.517l-1.631-0.409l-0.405,1.4l-2.859,0.441
		l-0.285-0.095v0.144l-0.992,0.15l-0.811-1.632l-0.936-0.409h-2.039l-0.928,0.758v1.688L141.049,48l1.721,0.242l-0.385,0.169
		l-1.57,1.741l-0.695-0.871l-1.515-0.4l-4.138,3.894l0.539,0.444l-6.109,3.383l-5.748,5.977l-0.389,2.664l-5.765,3.782l-2.853,2.872
		l0.313,5.745l-3.963-1.845l0.032-3.359l-11.021,0.005l-5.704,2.889l-2.484,4.569l-0.979,3.623l1.607,3.515l4.495,0.548l7.145-4.78
		l0.626,2.369l-2.182,4.119l5.443,0.928l0.54,8.401l7.458,1.265l4.732-5.474l5.748,1.169l2.02,2.808l5.511-0.326l0.154-1.629
		l3.027,1.476l3.42,5.354l5.896,0.083l2.177,3.805l0.311,4.654l4.197,1.6v-62.64L148.898,49.608z M139.628,54.312l-1.944,0.163
		l0.104-1.352l0.873-1.084l1.166,0.916L139.628,54.312z M146.452,51.924l-1.331,0.115l-0.27,1.285l-1.023,0.637l-1.639,0.136
		c-0.055-0.384-0.096-0.678-0.096-0.678h-0.634v-1.38h2.675l0.555-1.426l1.064-0.021l1.217,0.25L146.452,51.924z"/>
	<path fill="#32B8C9" d="M152.449,3.885c-20.502,0-39.469,6.655-54.897,17.895l4.713-0.038l2.098,1.161l3.956,0.854l0.309,1.555
		l6.292,0.232l-0.853-2.017l-5.589-0.157l1.317-1.239l-0.46-1.478h-5.054l5.515-4.117h5.281l2.483,3.421l4.121,0.231l2.48-2.41
		l1.868,0.934l-3.42,3.34c0,0-4.736,0.079-4.502,0.079s0.392,3.259,0.392,3.259l5.737-0.159l0.626-1.548l3.957-0.235l0.468-2.327
		l-2.329-0.392l0.777-2.095l1.785-0.541l6.213,0.307l-3.429,3.109l0.556,2.403l3.571,0.546l-0.234-4.348l3.415-1.788l6.062-0.698
		l6.986,3.095V3.888C152.59,3.888,152.521,3.885,152.449,3.885z"/>
	<polygon fill="#32B8C9" points="151.883,28.185 150.711,31.211 141.658,29.075 148.771,25.287 146.059,22.981 139.922,23.756 
		139.386,24.313 139.366,24.302 139.266,24.436 137.501,26.27 134.586,26.516 134.819,27.973 135.834,28.393 135.795,28.873 
		133.424,29.212 133.249,30.59 130.975,30.709 130.566,27.973 126.488,29.212 118.162,34.087 119.098,37.519 121.426,39.037 
		126.084,39.679 126.084,44.973 128.233,44.625 130.217,40.491 135.169,38.922 135.169,32.572 137.922,30.493 144.583,32.064 
		144.114,36.259 145.904,36.259 150.795,33.854 151.029,39.364 152.66,40.358 152.66,28.185 	"/>
	<polygon fill="#32B8C9" points="151.029,45.965 151.26,47.044 152.66,47.682 152.66,45.41 	"/>
</g>
<g opacity="0.5">
	<g>
		<path fill="#FFFFFF" d="M71.594,180.696H35.759c-1.18,0-2.144,0.971-2.144,2.143v23.633c0,1.182,0.964,2.145,2.144,2.145H48.75
			l-2.848,9.488l2.619,0.033l2.697-9.521h4.922l2.696,9.521l2.522,0.047l-2.753-9.568h12.989c1.174,0,2.145-0.963,2.145-2.145
			v-23.633C73.739,181.667,72.777,180.696,71.594,180.696L71.594,180.696z M69.66,204.442H37.693V184.43H69.66V204.442z
			 M69.66,204.442"/>
		<path fill="#FFFFFF" d="M41.458,201.081c0.919,0,1.664-0.742,1.664-1.664c0-0.166-0.052-0.314-0.098-0.461
			c2.122-1.719,5.874-4.729,7.582-6.053c0.271,0.191,0.586,0.326,0.936,0.326c0.298,0,0.56-0.098,0.794-0.229
			c1.105,0.938,2.971,2.52,4.299,3.65c-0.015,0.098-0.061,0.182-0.061,0.281c0,0.916,0.753,1.662,1.672,1.662
			c0.917,0,1.663-0.746,1.663-1.662c0-0.16-0.052-0.309-0.097-0.453l4.299-3.881c0.226,0.121,0.481,0.209,0.752,0.209
			c0.919,0,1.666-0.744,1.666-1.662c0-0.92-0.746-1.662-1.666-1.662c-0.911,0-1.653,0.742-1.653,1.662
			c0,0.219,0.044,0.43,0.125,0.621c-1.201,1.078-3.059,2.748-4.203,3.791c-0.261-0.166-0.561-0.291-0.885-0.291
			c-0.395,0-0.735,0.158-1.023,0.387c-1.096-0.938-2.872-2.441-4.132-3.512c0.07-0.184,0.115-0.365,0.115-0.566
			c0-0.92-0.743-1.664-1.655-1.664c-0.919,0-1.662,0.744-1.662,1.664c0,0.201,0.042,0.395,0.111,0.566l-7.623,5.928
			c-0.262-0.174-0.568-0.309-0.919-0.309c-0.917,0-1.662,0.746-1.662,1.656C39.795,200.338,40.54,201.081,41.458,201.081
			L41.458,201.081z M41.458,201.081"/>
	</g>
</g>
<g>
</g>
<g>
	<polygon opacity="0.5" fill="#FFFFFF" points="96.127,243.504 107.771,247.627 107.771,215.836 96.127,211.713 96.127,211.713 
		96.127,243.504 	"/>
	<polygon opacity="0.5" fill="#FFFFFF" points="131.58,247.651 131.58,215.86 120.045,211.774 120.045,243.567 	"/>
	<polygon opacity="0.5" fill="#FFFFFF" points="108.836,247.651 118.871,243.504 119.045,243.567 119.045,211.774 118.871,211.713 
		108.836,215.86 108.771,215.836 108.771,247.627 	"/>
	<path fill="#F3F0EF" d="M118.729,229.411c0.122,0.152,0.225,0.307,0.315,0.461v-0.268
		C118.937,229.542,118.826,229.481,118.729,229.411z"/>
	<polygon fill="#315565" points="98.32,215.448 105.579,217.625 105.761,233.051 98.138,230.51 	"/>
	<polygon fill="#315565" points="121.732,220.153 129.262,222.213 129.218,228.883 121.781,226.772 	"/>
	<g>
		<g>
			<line fill="#315565" x1="105.196" y1="237.292" x2="98.389" y2="234.952"/>
			<polygon fill="#315565" points="105.476,237.895 105.476,235.114 98.09,232.333 98.09,235.258 			"/>
		</g>
	</g>
	<circle fill="#315565" cx="113.766" cy="232.545" r="3.176"/>
	<g>
		<g>
			<polygon fill="#315565" points="128.926,233.721 128.926,233.002 121.637,230.989 121.686,231.612 			"/>
		</g>
	</g>
	<g>
		<g>
			<polygon fill="#315565" points="128.926,236.407 128.926,235.688 121.637,233.674 121.686,234.297 			"/>
		</g>
	</g>
	<g>
		<g>
			<polygon fill="#315565" points="128.926,238.901 128.926,238.182 121.637,236.168 121.686,236.792 			"/>
		</g>
	</g>
	<g>
		<g>
			<polygon fill="#315565" points="110.223,220.032 110.168,219.315 117.666,216.807 117.662,217.434 			"/>
		</g>
	</g>
	<g>
		<g>
			<polygon fill="#315565" points="110.235,222.709 110.181,221.993 117.678,219.487 117.675,220.112 			"/>
		</g>
	</g>
	<g>
		<g>
			<polygon fill="#315565" points="110.232,225.247 110.178,224.532 117.676,222.022 117.672,222.651 			"/>
		</g>
	</g>
</g>
<path opacity="0.5" fill="#FFFFFF" d="M5.479,150.094c0-8.1,0-16.199,0-24.299c0.858,0.012,1.717,0.023,2.576,0.037
	c0.169,0.004,0.195-0.09,0.193-0.23c-0.004-0.379,0.013-0.76-0.006-1.139c-0.014-0.258,0.088-0.324,0.329-0.314
	c1.367,0.055,2.736,0.07,4.102,0.15c2.459,0.146,4.889,0.49,7.242,1.254c1.278,0.416,2.5,0.955,3.559,1.803
	c0.276,0.221,0.523,0.48,0.789,0.729c0.078-0.07,0.142-0.119,0.194-0.178c0.592-0.654,1.323-1.117,2.101-1.514
	c1.682-0.855,3.486-1.314,5.332-1.637c2.667-0.469,5.36-0.58,8.06-0.607c0.244-0.004,0.338,0.062,0.325,0.318
	c-0.02,0.379-0.002,0.76-0.006,1.139c-0.001,0.139,0.026,0.232,0.194,0.23c0.858-0.016,1.717-0.027,2.576-0.041
	c0,8.1,0,16.199,0,24.299c-0.088,0.008-0.178,0.025-0.267,0.025c-2.599,0.012-5.196,0.035-7.784,0.332
	c-2.129,0.244-4.235,0.584-6.262,1.312c-1.173,0.42-2.299,0.92-3.158,1.875c-0.05,0.055-0.161,0.072-0.245,0.074
	c-0.699,0.006-1.399,0.008-2.099,0c-0.09-0.002-0.21-0.033-0.265-0.094c-0.706-0.807-1.635-1.27-2.6-1.662
	c-1.715-0.695-3.515-1.066-5.339-1.322c-2.199-0.311-4.411-0.473-6.633-0.49C7.417,150.139,6.448,150.112,5.479,150.094z
	 M23.434,148.954c0-0.127,0-0.232,0-0.338c0-6.338,0.003-12.676-0.009-19.014c0-0.209-0.092-0.467-0.232-0.613
	c-0.323-0.336-0.676-0.654-1.062-0.914c-1.217-0.822-2.595-1.268-4.006-1.613c-2.696-0.658-5.444-0.842-8.206-0.92
	c-0.278-0.008-0.305,0.109-0.305,0.336c0.004,6.598,0.004,13.195-0.002,19.793c0,0.271,0.092,0.324,0.343,0.338
	c1.805,0.115,3.612,0.199,5.409,0.385c2.094,0.217,4.14,0.684,6.08,1.527C22.106,148.209,22.732,148.586,23.434,148.954z
	 M25.082,148.999c0.183-0.105,0.297-0.178,0.42-0.238c0.849-0.414,1.674-0.896,2.556-1.225c1.816-0.676,3.716-1.035,5.638-1.221
	c1.62-0.158,3.25-0.219,4.875-0.305c0.262-0.014,0.337-0.088,0.334-0.35c-0.014-1.199-0.006-2.398-0.006-3.6
	c0-5.375-0.002-10.754,0.006-16.133c0-0.295-0.061-0.406-0.379-0.385c-0.857,0.059-1.717,0.078-2.574,0.129
	c-2.26,0.135-4.495,0.436-6.667,1.098c-1.208,0.369-2.367,0.85-3.374,1.641c-0.537,0.422-0.856,0.887-0.851,1.654
	c0.036,6.158,0.02,12.316,0.02,18.475C25.082,148.667,25.082,148.797,25.082,148.999z"/>
<rect x="52.358" y="177.731" opacity="0.5" fill="#FFFFFF" width="2.371" height="2.982"/>
<g>
	<rect x="10.585" y="73.509" opacity="0.5" fill="#FFFFFF" width="24.171" height="16.75"/>
	<rect x="21.021" y="83.415" fill="#315565" width="10.719" height="1.176"/>
	<rect x="21.095" y="85.985" fill="#315565" width="5.873" height="0.514"/>
	<rect x="18.099" y="77.424" fill="#315565" width="5.139" height="1.443"/>
	<circle fill="#315565" cx="15.514" cy="78.124" r="1.689"/>
</g>
<g opacity="0.5">
	<path fill="#FFFFFF" d="M21.089,131.583c-3.677-2.332-8.971-2.09-9.025-2.088l-0.051-0.998c0.23-0.018,5.664-0.262,9.612,2.242
		L21.089,131.583z"/>
	<path fill="#FFFFFF" d="M21.089,134.217c-3.677-2.332-8.971-2.09-9.025-2.088l-0.051-0.998c0.23-0.018,5.664-0.262,9.612,2.242
		L21.089,134.217z"/>
</g>
<g opacity="0.5">
	<path fill="#FFFFFF" d="M21.089,137.042c-3.677-2.332-8.971-2.09-9.025-2.088l-0.051-0.998c0.23-0.018,5.664-0.262,9.612,2.242
		L21.089,137.042z"/>
	<path fill="#FFFFFF" d="M21.089,139.676c-3.677-2.332-8.971-2.09-9.025-2.088l-0.051-0.998c0.23-0.018,5.664-0.262,9.612,2.242
		L21.089,139.676z"/>
</g>
<g opacity="0.5">
	<path fill="#FFFFFF" d="M21.089,142.5c-3.677-2.332-8.971-2.09-9.025-2.088l-0.051-0.998c0.23-0.018,5.664-0.262,9.612,2.242
		L21.089,142.5z"/>
	<path fill="#FFFFFF" d="M21.089,145.135c-3.677-2.332-8.971-2.09-9.025-2.088l-0.051-0.998c0.23-0.018,5.664-0.262,9.612,2.242
		L21.089,145.135z"/>
</g>
<g opacity="0.5">
	<path fill="#FFFFFF" d="M27.443,131.583c3.762-2.332,9.178-2.09,9.234-2.088l0.053-0.998c-0.236-0.018-5.794-0.262-9.834,2.242
		L27.443,131.583z"/>
	<path fill="#FFFFFF" d="M27.443,134.217c3.762-2.332,9.178-2.09,9.234-2.088l0.053-0.998c-0.236-0.018-5.794-0.262-9.834,2.242
		L27.443,134.217z"/>
</g>
<g opacity="0.5">
	<path fill="#FFFFFF" d="M27.443,137.042c3.762-2.332,9.178-2.09,9.234-2.088l0.053-0.998c-0.236-0.018-5.794-0.262-9.834,2.242
		L27.443,137.042z"/>
	<path fill="#FFFFFF" d="M27.443,139.676c3.762-2.332,9.178-2.09,9.234-2.088l0.053-0.998c-0.236-0.018-5.794-0.262-9.834,2.242
		L27.443,139.676z"/>
</g>
<g opacity="0.5">
	<path fill="#FFFFFF" d="M27.443,142.5c3.762-2.332,9.178-2.09,9.234-2.088l0.053-0.998c-0.236-0.018-5.794-0.262-9.834,2.242
		L27.443,142.5z"/>
	<path fill="#FFFFFF" d="M27.443,145.135c3.762-2.332,9.178-2.09,9.234-2.088l0.053-0.998c-0.236-0.018-5.794-0.262-9.834,2.242
		L27.443,145.135z"/>
</g>
<g>
	<g opacity="0.5">
		<rect x="166.85" y="212.729" fill="#315565" width="43.091" height="26.426"/>
		<path fill="#FFFFFF" d="M209.281,211.172h-39.969c-1.701,0-3.508,1.07-3.508,2.781v28.396c0,1.707,1.807,4.008,3.508,4.008h15.332
			c0,0,0.64,5.285-5.014,5.285v1.312h18.535v-1.312c-5.655,0-4.227-5.285-4.227-5.285h15.342c1.697,0,2.709-2.299,2.709-4.008
			v-28.396C211.99,212.243,210.979,211.172,209.281,211.172z M189.305,244.586c-1.202,0-2.175-0.975-2.175-2.176
			c0-1.203,0.973-2.178,2.175-2.178s2.178,0.975,2.178,2.178C191.482,243.612,190.507,244.586,189.305,244.586z M208.849,237.875
			h-40.213v-23.877h40.213V237.875z"/>
	</g>
	<g opacity="0.5">
		<path fill-rule="evenodd" clip-rule="evenodd" fill="#FFFFFF" d="M196.291,230.598c0-0.162,0-0.287,0-0.439
			c3.356,0,6.693,0,10.08,0c0,0.131,0,0.273,0,0.439C203.02,230.598,199.683,230.598,196.291,230.598z"/>
		<path fill-rule="evenodd" clip-rule="evenodd" fill="#FFFFFF" d="M207.48,232.354c-3.709,0-7.414,0-11.164,0
			c0-0.137,0-0.268,0-0.418c0.158-0.01,0.3-0.029,0.441-0.029c3.421,0,6.842,0.004,10.263-0.006
			C207.514,231.899,207.645,232.022,207.48,232.354z"/>
		<path fill-rule="evenodd" clip-rule="evenodd" fill="#FFFFFF" d="M181.924,231.989c0,0.139,0,0.26,0,0.414
			c-0.17,0.01-0.33,0.027-0.488,0.027c-3.406,0.002-6.811-0.004-10.217,0.006c-0.477,0.002-0.643-0.098-0.49-0.447
			C174.449,231.989,178.172,231.989,181.924,231.989z"/>
		<path fill-rule="evenodd" clip-rule="evenodd" fill="#FFFFFF" d="M183.418,232.405c0-0.152,0-0.273,0-0.418
			c3.734,0,7.441,0,11.179,0c0.065,0.248,0.132,0.449-0.407,0.447c-3.479-0.008-6.956-0.004-10.434-0.004
			C183.666,232.428,183.577,232.417,183.418,232.405z"/>
		<path fill-rule="evenodd" clip-rule="evenodd" fill="#FFFFFF" d="M196.303,234.067c0-0.143,0-0.266,0-0.422
			c3.025,0,6.049,0,9.115,0c0,0.131,0,0.262,0,0.422C202.385,234.067,199.36,234.067,196.303,234.067z"/>
		<path fill-rule="evenodd" clip-rule="evenodd" fill="#FFFFFF" d="M170.701,235.973c0-0.152,0-0.275,0-0.428
			c3.402,0,6.787,0,10.211,0c0,0.139,0,0.271,0,0.428C177.514,235.973,174.141,235.973,170.701,235.973z"/>
		<path fill-rule="evenodd" clip-rule="evenodd" fill="#FFFFFF" d="M193.605,235.545c0,0.143,0,0.266,0,0.422
			c-3.379,0-6.75,0-10.188,0c-0.009-0.125-0.019-0.258-0.03-0.422C186.796,235.545,190.166,235.545,193.605,235.545z"/>
		<path fill-rule="evenodd" clip-rule="evenodd" fill="#FFFFFF" d="M175.759,230.659c-1.537,0-3.074,0-4.612,0
			c-0.243,0-0.483,0.021-0.476-0.24s0.257-0.234,0.494-0.234c3.056,0,6.112,0,9.169,0c0.229,0,0.492-0.041,0.503,0.225
			c0.013,0.293-0.27,0.25-0.521,0.25C178.797,230.659,177.277,230.659,175.759,230.659z"/>
		<path fill-rule="evenodd" clip-rule="evenodd" fill="#FFFFFF" d="M193.49,230.184c0,0.178,0,0.301,0,0.451
			c-0.18,0.008-0.34,0.023-0.498,0.023c-3.016,0-6.031,0-9.046,0c-0.073,0-0.166,0.02-0.216-0.004
			c-0.123-0.061-0.229-0.141-0.341-0.213c0.114-0.086,0.221-0.24,0.343-0.246c0.564-0.027,1.131-0.012,1.698-0.012
			c2.448,0,4.897,0,7.347,0C192.994,230.184,193.21,230.184,193.49,230.184z"/>
		<path fill-rule="evenodd" clip-rule="evenodd" fill="#FFFFFF" d="M170.732,233.67c3.031,0,6.041,0,9.072,0
			c0.137,0.32,0.069,0.475-0.479,0.471c-2.705-0.014-5.41-0.012-8.115,0C170.717,234.143,170.582,234.026,170.732,233.67z"/>
		<path fill-rule="evenodd" clip-rule="evenodd" fill="#FFFFFF" d="M183.418,234.098c0-0.154,0-0.275,0-0.42
			c3.037,0,6.044,0,9.083,0c0.075,0.246,0.163,0.459-0.382,0.457c-2.814-0.004-5.629-0.002-8.443-0.004
			C183.605,234.131,183.536,234.114,183.418,234.098z"/>
		<path fill-rule="evenodd" clip-rule="evenodd" fill="#FFFFFF" d="M203.015,235.963c-2.157,0-4.29,0-6.423,0
			c-0.172-0.416-0.141-0.451,0.436-0.451c1.828-0.002,3.656,0.008,5.484-0.006C202.968,235.502,203.182,235.584,203.015,235.963z"/>
		<path fill-rule="evenodd" clip-rule="evenodd" fill="#FFFFFF" d="M206.117,220.081c0,0.594,0.004,1.17-0.014,1.746
			c-0.001,0.027-0.176,0.064-0.305,0.078c-0.121,0.016-0.288,0.006-0.435,0.006c-11.244,0-22.487,0-33.731,0
			c-0.775,0-0.775,0-0.775-0.188c0-0.508,0.01-1.012-0.008-1.518c-0.004-0.102,0.104-0.137,0.551-0.137
			c11.409,0.002,22.818,0.002,34.227,0.002C205.768,220.071,205.91,220.077,206.117,220.081z"/>
		<path fill-rule="evenodd" clip-rule="evenodd" fill="#FFFFFF" d="M180.63,223.752c0,1.531,0,3.037,0,4.576
			c-3.24,0-6.481,0-9.763,0c0-1.516,0-3.031,0-4.576C174.108,223.752,177.335,223.752,180.63,223.752z"/>
		<path fill-rule="evenodd" clip-rule="evenodd" fill="#FFFFFF" d="M206.112,228.35c-3.257,0-6.476,0-9.741,0
			c0-1.529,0-3.055,0-4.604c3.24,0,6.472,0,9.741,0C206.112,225.272,206.112,226.79,206.112,228.35z"/>
		<path fill-rule="evenodd" clip-rule="evenodd" fill="#FFFFFF" d="M193.335,223.756c0,1.531,0,3.047,0,4.586
			c-3.261,0-6.494,0-9.772,0c0-1.521,0-3.039,0-4.586C186.816,223.756,190.059,223.756,193.335,223.756z"/>
		<path fill-rule="evenodd" clip-rule="evenodd" fill="#FFFFFF" d="M175.791,216.167c1.727,0,3.447,0,5.174,0
			c0.044,0.814,0.028,1.256-0.129,1.254c-1.637-0.016-3.271-0.016-4.907,0C175.795,217.42,175.744,217.137,175.791,216.167z"/>
		<ellipse fill-rule="evenodd" clip-rule="evenodd" fill="#FFFFFF" cx="173.151" cy="216.545" rx="1.46" ry="1.5"/>
	</g>
</g>
<g>
	<path opacity="0.5" fill="#FFFFFF" d="M52.888,12.313H39.844c-1.244,0-2.253,1.013-2.253,2.258v26.484
		c0,1.246,1.01,2.258,2.253,2.258h13.044c1.246,0,2.254-1.012,2.254-2.258V14.571C55.144,13.326,54.134,12.313,52.888,12.313
		 M51.4,13.726c0.32,0,0.579,0.261,0.579,0.579c0,0.32-0.259,0.576-0.579,0.576c-0.317,0-0.578-0.256-0.578-0.576
		C50.822,13.987,51.083,13.726,51.4,13.726 M43.344,13.949h6.046v0.661h-6.046V13.949z M46.366,41.952
		c-0.835,0-1.511-0.677-1.511-1.512c0-0.834,0.675-1.513,1.511-1.513c0.835,0,1.513,0.679,1.513,1.513
		C47.879,41.275,47.201,41.952,46.366,41.952 M53.455,37.428H39.28V16.127h14.175V37.428z"/>
	<g>
		<circle opacity="0.5" fill="#FFFFFF" cx="46.662" cy="24.649" r="3.005"/>
		<rect x="43.125" y="29.016" opacity="0.5" fill="#FFFFFF" width="7.703" height="2.24"/>
	</g>
</g>
<g>
</g>
<g>
</g>
<g>
</g>
<g>
</g>
<g>
</g>
<g>
</g>
</svg>
